<svg width="746" height="583" viewBox="0 0 746 583" fill="none" xmlns="http://www.w3.org/2000/svg">
<path fill-rule="evenodd" clip-rule="evenodd" d="M256.029 555.047L238.956 240.87L204.092 563.284L294.142 262.14L152.505 553.032L338.818 301.243L107.491 525.529L367.594 353.465L74.4795 484.091L377 412.506L57.4519 433.716L365.901 471.244L58.4619 380.482L335.637 522.595L77.388 330.807L289.858 560.366L111.947 290.684L234.084 580L157.971 264.953L175.044 579.13L209.908 256.716L119.858 557.86L261.495 266.968L75.1822 518.756L306.509 294.471L46.4062 466.535L339.52 335.909L37 407.494L356.548 386.284L48.0987 348.756L355.538 439.518L78.3625 297.405L336.612 489.193L124.142 259.634L302.053 529.316L179.916 240L256.029 555.047Z" stroke="#9C7BFF" stroke-width="0.377953" stroke-miterlimit="22.9256" stroke-dasharray="0.38 0.38"/>
<g filter="url(#filter0_biiiiii_550_220)">
<rect x="37" y="240" width="340" height="340" fill="white" fill-opacity="0.01"/>
</g>
<g filter="url(#filter1_biiiiii_550_220)">
<path d="M377 240L746 580H696.5H377V557.143V468.571V437.619V403.81V364.286V341.429V324.286V312.381V240Z" fill="white" fill-opacity="0.01"/>
</g>
<path d="M135.12 181.24C133.333 181.24 131.853 180.933 130.68 180.32C129.533 179.707 128.68 178.92 128.12 177.96C127.56 177 127.28 176.013 127.28 175C127.28 174.013 127.52 173.08 128 172.2C128.48 171.293 129.16 170.547 130.04 169.96C130.947 169.373 132.013 169.08 133.24 169.08C133.213 169.32 133.2 169.547 133.2 169.76C133.2 169.947 133.2 170.04 133.2 170.04C133.2 171.827 133.373 173.24 133.72 174.28C134.067 175.293 134.507 176.027 135.04 176.48C135.573 176.907 136.12 177.12 136.68 177.12C137.533 177.12 138.293 176.787 138.96 176.12C139.627 175.427 139.96 174.627 139.96 173.72C139.96 172.707 139.52 171.813 138.64 171.04C137.787 170.267 136.693 169.413 135.36 168.48C134.613 167.92 133.813 167.293 132.96 166.6C132.133 165.88 131.427 165.04 130.84 164.08C130.253 163.093 129.96 161.933 129.96 160.6C129.96 159.213 130.28 157.987 130.92 156.92C131.587 155.853 132.453 154.96 133.52 154.24C134.613 153.493 135.8 152.933 137.08 152.56C138.387 152.16 139.68 151.96 140.96 151.96C142.533 151.96 143.827 152.213 144.84 152.72C145.853 153.227 146.613 153.88 147.12 154.68C147.627 155.48 147.88 156.307 147.88 157.16C147.88 157.96 147.653 158.733 147.2 159.48C146.773 160.2 146.133 160.787 145.28 161.24C144.427 161.693 143.373 161.92 142.12 161.92C142.2 161.547 142.253 161.213 142.28 160.92C142.307 160.6 142.32 160.32 142.32 160.08C142.32 158.747 142.027 157.8 141.44 157.24C140.88 156.653 140.253 156.36 139.56 156.36C138.893 156.36 138.253 156.613 137.64 157.12C137.027 157.6 136.72 158.387 136.72 159.48C136.72 160.413 136.96 161.213 137.44 161.88C137.947 162.547 138.587 163.133 139.36 163.64C140.16 164.147 141 164.64 141.88 165.12C142.787 165.6 143.653 166.133 144.48 166.72C145.333 167.28 146.04 167.947 146.6 168.72C147.16 169.493 147.44 170.467 147.44 171.64C147.44 172.867 147.107 174.067 146.44 175.24C145.773 176.387 144.867 177.413 143.72 178.32C142.573 179.2 141.253 179.907 139.76 180.44C138.293 180.973 136.747 181.24 135.12 181.24ZM164.362 181.2C163.428 181.2 162.615 180.893 161.922 180.28C161.228 179.667 160.882 178.667 160.882 177.28C160.882 177.147 160.882 177.013 160.882 176.88C160.882 176.747 160.895 176.613 160.922 176.48C160.122 178.08 159.215 179.267 158.202 180.04C157.215 180.787 156.215 181.16 155.202 181.16C154.268 181.16 153.388 180.84 152.562 180.2C151.735 179.533 151.068 178.56 150.562 177.28C150.055 176 149.802 174.453 149.802 172.64C149.802 170.773 150.055 169.107 150.562 167.64C151.095 166.173 151.788 164.933 152.642 163.92C153.495 162.907 154.428 162.147 155.442 161.64C156.455 161.107 157.442 160.84 158.402 160.84C159.468 160.84 160.428 161.173 161.282 161.84C162.135 162.48 162.722 163.507 163.042 164.92C163.122 164.467 163.175 164.053 163.202 163.68C163.255 163.307 163.282 163.053 163.282 162.92C163.308 162.2 163.668 161.667 164.362 161.32C165.082 160.973 165.868 160.8 166.722 160.8C167.468 160.8 168.175 160.947 168.842 161.24C169.508 161.533 169.962 162.027 170.202 162.72L170.282 162.96C169.962 163.68 169.642 164.547 169.322 165.56C169.002 166.573 168.708 167.64 168.442 168.76C168.175 169.853 167.962 170.933 167.802 172C167.642 173.04 167.562 173.96 167.562 174.76C167.562 175.64 167.655 176.253 167.842 176.6C168.028 176.92 168.255 177.08 168.522 177.08C168.975 177.08 169.388 176.76 169.762 176.12L170.082 176.28C170.082 177.187 169.788 178.013 169.202 178.76C168.615 179.507 167.882 180.107 167.002 180.56C166.122 180.987 165.242 181.2 164.362 181.2ZM157.842 176.12C158.535 176.12 159.295 175.507 160.122 174.28C160.975 173.027 161.708 171.24 162.322 168.92C162.375 168.68 162.428 168.453 162.482 168.24C162.535 168 162.575 167.773 162.602 167.56C162.175 166.573 161.722 165.88 161.242 165.48C160.788 165.053 160.335 164.84 159.882 164.84C159.215 164.84 158.588 165.2 158.002 165.92C157.442 166.613 156.975 167.493 156.602 168.56C156.255 169.627 156.082 170.693 156.082 171.76C156.082 173.227 156.242 174.32 156.562 175.04C156.908 175.76 157.335 176.12 157.842 176.12ZM177.06 181.16C176.1 181.16 175.246 180.773 174.5 180C173.753 179.2 173.38 178.08 173.38 176.64C173.38 175.947 173.46 175.16 173.62 174.28C173.78 173.4 173.966 172.507 174.18 171.6C174.393 170.667 174.58 169.8 174.74 169C174.9 168.173 174.98 167.493 174.98 166.96C174.98 166.4 174.873 165.96 174.66 165.64C174.473 165.293 174.22 165.12 173.9 165.12C173.393 165.12 172.873 165.467 172.34 166.16L172.1 166C172.073 165.573 172.166 165.067 172.38 164.48C172.593 163.893 172.926 163.333 173.38 162.8C173.833 162.24 174.406 161.773 175.1 161.4C175.82 161.027 176.66 160.84 177.62 160.84C179.033 160.84 180.06 161.253 180.7 162.08C181.34 162.88 181.66 163.853 181.66 165C181.66 165.187 181.646 165.387 181.62 165.6C181.62 165.787 181.606 165.973 181.58 166.16C182.54 164.427 183.54 163.107 184.58 162.2C185.646 161.267 186.633 160.8 187.54 160.8C188.393 160.8 189.02 161.133 189.42 161.8C189.82 162.467 190.02 163.267 190.02 164.2C190.02 165.053 189.846 165.92 189.5 166.8C189.18 167.68 188.686 168.413 188.02 169C187.38 169.56 186.593 169.827 185.66 169.8L185.5 169.72C185.473 169.027 185.246 168.48 184.82 168.08C184.393 167.68 183.913 167.48 183.38 167.48C182.66 167.48 181.98 167.84 181.34 168.56C180.726 169.28 180.42 170.32 180.42 171.68C180.42 172.507 180.513 173.4 180.7 174.36C180.886 175.32 180.98 176.133 180.98 176.8C180.98 177.6 180.793 178.333 180.42 179C180.046 179.667 179.566 180.2 178.98 180.6C178.393 180.973 177.753 181.16 177.06 181.16ZM197.122 181.16C196.269 181.16 195.456 180.973 194.682 180.6C193.936 180.2 193.322 179.587 192.842 178.76C192.389 177.933 192.162 176.88 192.162 175.6C192.162 174.907 192.229 174 192.362 172.88C192.496 171.76 192.669 170.533 192.882 169.2C193.122 167.867 193.362 166.533 193.602 165.2C193.069 165.227 192.549 165.28 192.042 165.36C191.562 165.44 191.082 165.533 190.602 165.64L190.522 165.36C191.056 164.72 191.616 164.173 192.202 163.72C192.789 163.267 193.402 162.893 194.042 162.6C194.389 160.84 194.682 159.32 194.922 158.04C195.162 156.733 195.282 155.96 195.282 155.72C195.282 155.267 195.629 154.893 196.322 154.6C197.042 154.307 197.842 154.16 198.722 154.16C199.496 154.16 200.216 154.307 200.882 154.6C201.576 154.893 202.042 155.387 202.282 156.08C202.122 156.24 201.896 156.84 201.602 157.88C201.309 158.893 201.002 160.133 200.682 161.6C201.189 161.627 201.709 161.653 202.242 161.68C202.776 161.707 203.322 161.747 203.882 161.8C203.936 161.96 203.976 162.133 204.002 162.32C204.029 162.507 204.042 162.707 204.042 162.92C204.042 163.32 203.976 163.76 203.842 164.24C203.736 164.693 203.602 165.107 203.442 165.48C202.802 165.427 202.202 165.373 201.642 165.32C201.082 165.24 200.536 165.187 200.002 165.16C199.789 166.307 199.589 167.453 199.402 168.6C199.242 169.747 199.109 170.787 199.002 171.72C198.922 172.653 198.882 173.387 198.882 173.92C198.882 175.04 199.082 175.787 199.482 176.16C199.909 176.533 200.416 176.72 201.002 176.72C201.536 176.72 202.016 176.613 202.442 176.4C202.869 176.187 203.176 175.933 203.362 175.64L203.762 175.76C203.602 176.853 203.176 177.813 202.482 178.64C201.789 179.44 200.962 180.067 200.002 180.52C199.042 180.947 198.082 181.16 197.122 181.16ZM209.544 181.16C208.397 181.16 207.477 180.773 206.784 180C206.09 179.227 205.744 178.173 205.744 176.84C205.744 176.12 205.837 175.187 206.024 174.04C206.21 172.867 206.437 171.587 206.704 170.2C206.997 168.787 207.277 167.36 207.544 165.92C207.81 164.453 208.037 163.04 208.224 161.68C208.41 160.32 208.504 159.12 208.504 158.08C208.504 156.773 208.33 155.827 207.984 155.24V155C208.57 154.333 209.21 153.84 209.904 153.52C210.597 153.2 211.277 153.04 211.944 153.04C212.957 153.04 213.824 153.4 214.544 154.12C215.264 154.84 215.624 155.92 215.624 157.36C215.624 158.133 215.517 159.08 215.304 160.2C215.09 161.32 214.837 162.493 214.544 163.72C214.25 164.947 213.957 166.093 213.664 167.16C214.17 166.173 214.837 165.2 215.664 164.24C216.517 163.253 217.477 162.44 218.544 161.8C219.637 161.16 220.77 160.84 221.944 160.84C223.277 160.84 224.17 161.253 224.624 162.08C225.104 162.907 225.344 163.933 225.344 165.16C225.344 166.28 225.224 167.48 224.984 168.76C224.744 170.013 224.504 171.227 224.264 172.4C224.024 173.547 223.904 174.507 223.904 175.28C223.904 176.4 224.237 176.96 224.904 176.96C225.197 176.96 225.45 176.88 225.664 176.72C225.904 176.533 226.077 176.333 226.184 176.12L226.464 176.32C226.464 177.36 226.21 178.24 225.704 178.96C225.197 179.68 224.544 180.227 223.744 180.6C222.97 180.973 222.17 181.16 221.344 181.16C220.25 181.16 219.264 180.8 218.384 180.08C217.504 179.333 217.064 178.133 217.064 176.48C217.064 175.547 217.184 174.533 217.424 173.44C217.69 172.347 217.944 171.293 218.184 170.28C218.424 169.24 218.544 168.373 218.544 167.68C218.544 166.773 218.224 166.32 217.584 166.32C216.997 166.32 216.357 166.613 215.664 167.2C214.97 167.787 214.357 168.52 213.824 169.4C213.317 170.28 212.984 171.147 212.824 172C212.77 172.213 212.744 172.467 212.744 172.76C212.744 173.427 212.837 174.067 213.024 174.68C213.237 175.293 213.344 176.013 213.344 176.84C213.344 178.067 213.024 179.093 212.384 179.92C211.744 180.747 210.797 181.16 209.544 181.16ZM236.111 159.6C235.044 159.6 234.164 159.28 233.471 158.64C232.804 157.973 232.471 157.147 232.471 156.16C232.471 155.093 232.871 154.173 233.671 153.4C234.471 152.627 235.444 152.24 236.591 152.24C237.657 152.24 238.524 152.573 239.191 153.24C239.884 153.907 240.231 154.733 240.231 155.72C240.231 156.787 239.831 157.707 239.031 158.48C238.231 159.227 237.257 159.6 236.111 159.6ZM233.311 181.16C232.271 181.16 231.337 180.8 230.511 180.08C229.684 179.333 229.271 178.147 229.271 176.52C229.271 175.587 229.391 174.72 229.631 173.92C229.897 173.093 230.191 172.293 230.511 171.52C230.857 170.747 231.151 170 231.391 169.28C231.657 168.533 231.791 167.8 231.791 167.08C231.791 166.44 231.684 165.987 231.471 165.72C231.257 165.427 231.004 165.28 230.711 165.28C230.257 165.28 229.817 165.573 229.391 166.16L229.111 166C229.217 164.933 229.551 164.027 230.111 163.28C230.697 162.507 231.404 161.907 232.231 161.48C233.084 161.053 233.924 160.84 234.751 160.84C235.764 160.84 236.644 161.173 237.391 161.84C238.137 162.48 238.511 163.533 238.511 165C238.511 165.88 238.377 166.813 238.111 167.8C237.871 168.76 237.577 169.72 237.231 170.68C236.911 171.64 236.617 172.533 236.351 173.36C236.111 174.187 235.991 174.893 235.991 175.48C235.991 175.987 236.084 176.347 236.271 176.56C236.484 176.773 236.711 176.88 236.951 176.88C237.191 176.88 237.417 176.813 237.631 176.68C237.871 176.52 238.044 176.347 238.151 176.16L238.431 176.24C238.431 177.227 238.164 178.093 237.631 178.84C237.124 179.56 236.484 180.133 235.711 180.56C234.937 180.96 234.137 181.16 233.311 181.16ZM243.611 181.16C242.784 181.16 242.051 180.96 241.411 180.56C240.771 180.16 240.451 179.493 240.451 178.56C240.451 177.093 240.757 175.6 241.371 174.08C242.011 172.56 242.784 171.067 243.691 169.6C244.624 168.107 245.544 166.653 246.451 165.24C247.384 163.827 248.157 162.48 248.771 161.2C249.411 159.92 249.731 158.733 249.731 157.64C249.731 156.76 249.517 156.32 249.091 156.32C248.797 156.32 248.464 156.56 248.091 157.04C247.717 157.493 247.451 158.173 247.291 159.08L246.851 159C246.851 157.48 247.211 156.2 247.931 155.16C248.651 154.093 249.571 153.293 250.691 152.76C251.811 152.227 252.957 151.96 254.131 151.96C255.491 151.96 256.757 152.347 257.931 153.12C259.131 153.893 259.957 155.12 260.411 156.8C260.597 157.467 260.731 158.213 260.811 159.04C260.917 159.867 260.984 160.587 261.011 161.2C261.037 161.787 261.051 162.08 261.051 162.08C261.104 164.24 261.144 166.067 261.171 167.56C261.224 169.053 261.304 170.307 261.411 171.32C261.517 172.333 261.664 173.187 261.851 173.88C262.037 174.547 262.277 175.093 262.571 175.52C262.891 175.92 263.291 176.12 263.771 176.12C264.224 176.12 264.611 175.987 264.931 175.72C265.277 175.453 265.504 175.2 265.611 174.96L265.891 175.16C265.891 176.387 265.651 177.453 265.171 178.36C264.691 179.267 264.064 179.96 263.291 180.44C262.517 180.92 261.704 181.16 260.851 181.16C260.024 181.16 259.211 180.92 258.411 180.44C257.637 179.933 256.957 179.16 256.371 178.12C255.784 177.08 255.397 175.733 255.211 174.08C254.384 174.027 253.571 173.987 252.771 173.96C251.997 173.907 251.291 173.88 250.651 173.88C250.224 173.88 249.811 173.893 249.411 173.92C249.037 173.92 248.664 173.933 248.291 173.96C248.051 174.787 247.851 175.627 247.691 176.48C247.557 177.307 247.491 178.12 247.491 178.92C247.491 179.533 247.091 180.067 246.291 180.52C245.491 180.947 244.597 181.16 243.611 181.16ZM249.611 170.24C250.277 170.053 250.984 169.933 251.731 169.88C252.477 169.8 253.277 169.76 254.131 169.76H255.011C254.957 167.787 254.877 165.76 254.771 163.68C254.691 161.6 254.357 159.667 253.771 157.88C253.557 159.8 253.024 161.813 252.171 163.92C251.317 166.027 250.464 168.133 249.611 170.24ZM270.728 181.2C269.981 181.2 269.314 180.893 268.728 180.28C268.168 179.64 267.888 178.467 267.888 176.76C267.888 176.467 267.888 176.213 267.888 176C267.914 175.76 267.928 175.587 267.928 175.48C268.034 174.413 268.181 173.093 268.368 171.52C268.581 169.92 268.821 168.253 269.088 166.52C269.354 164.76 269.621 163.067 269.888 161.44C270.181 159.813 270.448 158.4 270.688 157.2C270.928 155.973 271.128 155.133 271.288 154.68C271.581 153.88 272.101 153.253 272.848 152.8C273.621 152.32 274.408 152.08 275.208 152.08C275.901 152.08 276.528 152.28 277.088 152.68C277.674 153.08 278.074 153.76 278.288 154.72C278.128 155.253 277.874 156.2 277.528 157.56C277.181 158.893 276.808 160.533 276.408 162.48C276.008 164.427 275.621 166.573 275.248 168.92C274.901 171.267 274.621 173.72 274.408 176.28C274.381 176.733 274.341 177.267 274.288 177.88C274.234 178.467 274.194 179.067 274.168 179.68C273.848 180.027 273.368 180.373 272.728 180.72C272.088 181.04 271.421 181.2 270.728 181.2Z" fill="white"/>
<g filter="url(#filter2_biiiiii_550_220)">
<path d="M199.781 9.69434C203.38 4.86115 210.62 4.86116 214.219 9.69434L375.563 226.375C379.984 232.312 375.747 240.75 368.345 240.75H45.6554C38.2533 240.75 34.0159 232.312 38.4367 226.375L199.781 9.69434Z" fill="black" fill-opacity="0.01"/>
</g>
<defs>
<filter id="filter0_biiiiii_550_220" x="-63" y="140" width="540" height="540" filterUnits="userSpaceOnUse" color-interpolation-filters="sRGB">
<feFlood flood-opacity="0" result="BackgroundImageFix"/>
<feGaussianBlur in="BackgroundImageFix" stdDeviation="50"/>
<feComposite in2="SourceAlpha" operator="in" result="effect1_backgroundBlur_550_220"/>
<feBlend mode="normal" in="SourceGraphic" in2="effect1_backgroundBlur_550_220" result="shape"/>
<feColorMatrix in="SourceAlpha" type="matrix" values="0 0 0 0 0 0 0 0 0 0 0 0 0 0 0 0 0 0 127 0" result="hardAlpha"/>
<feOffset dy="1"/>
<feGaussianBlur stdDeviation="20"/>
<feComposite in2="hardAlpha" operator="arithmetic" k2="-1" k3="1"/>
<feColorMatrix type="matrix" values="0 0 0 0 0.890196 0 0 0 0 0.929412 0 0 0 0 0.937255 0 0 0 0.2 0"/>
<feBlend mode="normal" in2="shape" result="effect2_innerShadow_550_220"/>
<feColorMatrix in="SourceAlpha" type="matrix" values="0 0 0 0 0 0 0 0 0 0 0 0 0 0 0 0 0 0 127 0" result="hardAlpha"/>
<feOffset dy="4"/>
<feGaussianBlur stdDeviation="9"/>
<feComposite in2="hardAlpha" operator="arithmetic" k2="-1" k3="1"/>
<feColorMatrix type="matrix" values="0 0 0 0 0.603922 0 0 0 0 0.572549 0 0 0 0 0.823529 0 0 0 0.3 0"/>
<feBlend mode="normal" in2="effect2_innerShadow_550_220" result="effect3_innerShadow_550_220"/>
<feColorMatrix in="SourceAlpha" type="matrix" values="0 0 0 0 0 0 0 0 0 0 0 0 0 0 0 0 0 0 127 0" result="hardAlpha"/>
<feOffset dy="98"/>
<feGaussianBlur stdDeviation="50"/>
<feComposite in2="hardAlpha" operator="arithmetic" k2="-1" k3="1"/>
<feColorMatrix type="matrix" values="0 0 0 0 0.792157 0 0 0 0 0.67451 0 0 0 0 1 0 0 0 0.3 0"/>
<feBlend mode="normal" in2="effect3_innerShadow_550_220" result="effect4_innerShadow_550_220"/>
<feColorMatrix in="SourceAlpha" type="matrix" values="0 0 0 0 0 0 0 0 0 0 0 0 0 0 0 0 0 0 127 0" result="hardAlpha"/>
<feOffset dy="-82"/>
<feGaussianBlur stdDeviation="34"/>
<feComposite in2="hardAlpha" operator="arithmetic" k2="-1" k3="1"/>
<feColorMatrix type="matrix" values="0 0 0 0 0.376471 0 0 0 0 0.266667 0 0 0 0 0.564706 0 0 0 0.3 0"/>
<feBlend mode="normal" in2="effect4_innerShadow_550_220" result="effect5_innerShadow_550_220"/>
<feColorMatrix in="SourceAlpha" type="matrix" values="0 0 0 0 0 0 0 0 0 0 0 0 0 0 0 0 0 0 127 0" result="hardAlpha"/>
<feOffset dy="7"/>
<feGaussianBlur stdDeviation="5.5"/>
<feComposite in2="hardAlpha" operator="arithmetic" k2="-1" k3="1"/>
<feColorMatrix type="matrix" values="0 0 0 0 1 0 0 0 0 1 0 0 0 0 1 0 0 0 1 0"/>
<feBlend mode="normal" in2="effect5_innerShadow_550_220" result="effect6_innerShadow_550_220"/>
<feColorMatrix in="SourceAlpha" type="matrix" values="0 0 0 0 0 0 0 0 0 0 0 0 0 0 0 0 0 0 127 0" result="hardAlpha"/>
<feOffset dy="39"/>
<feGaussianBlur stdDeviation="28"/>
<feComposite in2="hardAlpha" operator="arithmetic" k2="-1" k3="1"/>
<feColorMatrix type="matrix" values="0 0 0 0 1 0 0 0 0 1 0 0 0 0 1 0 0 0 0.5 0"/>
<feBlend mode="normal" in2="effect6_innerShadow_550_220" result="effect7_innerShadow_550_220"/>
</filter>
<filter id="filter1_biiiiii_550_220" x="277" y="140" width="569" height="540" filterUnits="userSpaceOnUse" color-interpolation-filters="sRGB">
<feFlood flood-opacity="0" result="BackgroundImageFix"/>
<feGaussianBlur in="BackgroundImageFix" stdDeviation="50"/>
<feComposite in2="SourceAlpha" operator="in" result="effect1_backgroundBlur_550_220"/>
<feBlend mode="normal" in="SourceGraphic" in2="effect1_backgroundBlur_550_220" result="shape"/>
<feColorMatrix in="SourceAlpha" type="matrix" values="0 0 0 0 0 0 0 0 0 0 0 0 0 0 0 0 0 0 127 0" result="hardAlpha"/>
<feOffset dy="1"/>
<feGaussianBlur stdDeviation="20"/>
<feComposite in2="hardAlpha" operator="arithmetic" k2="-1" k3="1"/>
<feColorMatrix type="matrix" values="0 0 0 0 0.890196 0 0 0 0 0.929412 0 0 0 0 0.937255 0 0 0 0.2 0"/>
<feBlend mode="normal" in2="shape" result="effect2_innerShadow_550_220"/>
<feColorMatrix in="SourceAlpha" type="matrix" values="0 0 0 0 0 0 0 0 0 0 0 0 0 0 0 0 0 0 127 0" result="hardAlpha"/>
<feOffset dy="4"/>
<feGaussianBlur stdDeviation="9"/>
<feComposite in2="hardAlpha" operator="arithmetic" k2="-1" k3="1"/>
<feColorMatrix type="matrix" values="0 0 0 0 0.603922 0 0 0 0 0.572549 0 0 0 0 0.823529 0 0 0 0.3 0"/>
<feBlend mode="normal" in2="effect2_innerShadow_550_220" result="effect3_innerShadow_550_220"/>
<feColorMatrix in="SourceAlpha" type="matrix" values="0 0 0 0 0 0 0 0 0 0 0 0 0 0 0 0 0 0 127 0" result="hardAlpha"/>
<feOffset dy="98"/>
<feGaussianBlur stdDeviation="50"/>
<feComposite in2="hardAlpha" operator="arithmetic" k2="-1" k3="1"/>
<feColorMatrix type="matrix" values="0 0 0 0 0.792157 0 0 0 0 0.67451 0 0 0 0 1 0 0 0 0.3 0"/>
<feBlend mode="normal" in2="effect3_innerShadow_550_220" result="effect4_innerShadow_550_220"/>
<feColorMatrix in="SourceAlpha" type="matrix" values="0 0 0 0 0 0 0 0 0 0 0 0 0 0 0 0 0 0 127 0" result="hardAlpha"/>
<feOffset dy="-82"/>
<feGaussianBlur stdDeviation="34"/>
<feComposite in2="hardAlpha" operator="arithmetic" k2="-1" k3="1"/>
<feColorMatrix type="matrix" values="0 0 0 0 0.376471 0 0 0 0 0.266667 0 0 0 0 0.564706 0 0 0 0.3 0"/>
<feBlend mode="normal" in2="effect4_innerShadow_550_220" result="effect5_innerShadow_550_220"/>
<feColorMatrix in="SourceAlpha" type="matrix" values="0 0 0 0 0 0 0 0 0 0 0 0 0 0 0 0 0 0 127 0" result="hardAlpha"/>
<feOffset dy="7"/>
<feGaussianBlur stdDeviation="5.5"/>
<feComposite in2="hardAlpha" operator="arithmetic" k2="-1" k3="1"/>
<feColorMatrix type="matrix" values="0 0 0 0 1 0 0 0 0 1 0 0 0 0 1 0 0 0 1 0"/>
<feBlend mode="normal" in2="effect5_innerShadow_550_220" result="effect6_innerShadow_550_220"/>
<feColorMatrix in="SourceAlpha" type="matrix" values="0 0 0 0 0 0 0 0 0 0 0 0 0 0 0 0 0 0 127 0" result="hardAlpha"/>
<feOffset dy="39"/>
<feGaussianBlur stdDeviation="28"/>
<feComposite in2="hardAlpha" operator="arithmetic" k2="-1" k3="1"/>
<feColorMatrix type="matrix" values="0 0 0 0 1 0 0 0 0 1 0 0 0 0 1 0 0 0 0.5 0"/>
<feBlend mode="normal" in2="effect6_innerShadow_550_220" result="effect7_innerShadow_550_220"/>
</filter>
<filter id="filter2_biiiiii_550_220" x="-63.3613" y="-93.9305" width="540.723" height="434.681" filterUnits="userSpaceOnUse" color-interpolation-filters="sRGB">
<feFlood flood-opacity="0" result="BackgroundImageFix"/>
<feGaussianBlur in="BackgroundImageFix" stdDeviation="50"/>
<feComposite in2="SourceAlpha" operator="in" result="effect1_backgroundBlur_550_220"/>
<feBlend mode="normal" in="SourceGraphic" in2="effect1_backgroundBlur_550_220" result="shape"/>
<feColorMatrix in="SourceAlpha" type="matrix" values="0 0 0 0 0 0 0 0 0 0 0 0 0 0 0 0 0 0 127 0" result="hardAlpha"/>
<feOffset dy="1"/>
<feGaussianBlur stdDeviation="20"/>
<feComposite in2="hardAlpha" operator="arithmetic" k2="-1" k3="1"/>
<feColorMatrix type="matrix" values="0 0 0 0 0.890196 0 0 0 0 0.929412 0 0 0 0 0.937255 0 0 0 0.2 0"/>
<feBlend mode="normal" in2="shape" result="effect2_innerShadow_550_220"/>
<feColorMatrix in="SourceAlpha" type="matrix" values="0 0 0 0 0 0 0 0 0 0 0 0 0 0 0 0 0 0 127 0" result="hardAlpha"/>
<feOffset dy="4"/>
<feGaussianBlur stdDeviation="9"/>
<feComposite in2="hardAlpha" operator="arithmetic" k2="-1" k3="1"/>
<feColorMatrix type="matrix" values="0 0 0 0 0.603922 0 0 0 0 0.572549 0 0 0 0 0.823529 0 0 0 0.3 0"/>
<feBlend mode="normal" in2="effect2_innerShadow_550_220" result="effect3_innerShadow_550_220"/>
<feColorMatrix in="SourceAlpha" type="matrix" values="0 0 0 0 0 0 0 0 0 0 0 0 0 0 0 0 0 0 127 0" result="hardAlpha"/>
<feOffset dy="98"/>
<feGaussianBlur stdDeviation="50"/>
<feComposite in2="hardAlpha" operator="arithmetic" k2="-1" k3="1"/>
<feColorMatrix type="matrix" values="0 0 0 0 0.792157 0 0 0 0 0.67451 0 0 0 0 1 0 0 0 0.3 0"/>
<feBlend mode="normal" in2="effect3_innerShadow_550_220" result="effect4_innerShadow_550_220"/>
<feColorMatrix in="SourceAlpha" type="matrix" values="0 0 0 0 0 0 0 0 0 0 0 0 0 0 0 0 0 0 127 0" result="hardAlpha"/>
<feOffset dy="-82"/>
<feGaussianBlur stdDeviation="34"/>
<feComposite in2="hardAlpha" operator="arithmetic" k2="-1" k3="1"/>
<feColorMatrix type="matrix" values="0 0 0 0 0.376471 0 0 0 0 0.266667 0 0 0 0 0.564706 0 0 0 0.3 0"/>
<feBlend mode="normal" in2="effect4_innerShadow_550_220" result="effect5_innerShadow_550_220"/>
<feColorMatrix in="SourceAlpha" type="matrix" values="0 0 0 0 0 0 0 0 0 0 0 0 0 0 0 0 0 0 127 0" result="hardAlpha"/>
<feOffset dy="7"/>
<feGaussianBlur stdDeviation="5.5"/>
<feComposite in2="hardAlpha" operator="arithmetic" k2="-1" k3="1"/>
<feColorMatrix type="matrix" values="0 0 0 0 1 0 0 0 0 1 0 0 0 0 1 0 0 0 1 0"/>
<feBlend mode="normal" in2="effect5_innerShadow_550_220" result="effect6_innerShadow_550_220"/>
<feColorMatrix in="SourceAlpha" type="matrix" values="0 0 0 0 0 0 0 0 0 0 0 0 0 0 0 0 0 0 127 0" result="hardAlpha"/>
<feOffset dy="39"/>
<feGaussianBlur stdDeviation="28"/>
<feComposite in2="hardAlpha" operator="arithmetic" k2="-1" k3="1"/>
<feColorMatrix type="matrix" values="0 0 0 0 1 0 0 0 0 1 0 0 0 0 1 0 0 0 0.5 0"/>
<feBlend mode="normal" in2="effect6_innerShadow_550_220" result="effect7_innerShadow_550_220"/>
</filter>
</defs>
</svg>
