<svg width="125" height="82" viewBox="0 0 125 82" fill="none" xmlns="http://www.w3.org/2000/svg">
<path d="M125.001 67.3237H118.528H118.539V52.2033H118.507H124.623V54.0138L118.674 56.2891L124.122 59.7022V61.5006H118.522L125.001 65.5131V67.3237Z" fill="url(#paint0_linear_547_220)"/>
<path d="M74.8249 65.694V67.326C74.1081 66.5904 66.8062 58.9116 66.7041 58.9116V67.326H64.9905V50.2328H66.7041V58.2646L74.8249 50.2328V51.8893L67.8897 58.4315L74.8249 65.694Z" fill="url(#paint1_linear_547_220)"/>
<path fill-rule="evenodd" clip-rule="evenodd" d="M92.229 50.0835H94.2309V51.8954L92.229 51.8905V50.0835Z" fill="url(#paint2_linear_547_220)"/>
<path d="M83.8823 67.326H74.8249V50.2328H83.5038V52.0433H76.827V57.7317H83.0035V59.53H76.827V65.5154H83.8823V67.326ZM92.1392 54.0616H89.7991L89.5107 67.326H87.5088L87.7971 54.0616H82.8738V52.2513H92.1392V54.0616ZM94.2317 67.326H92.2298V52.2513H94.2317V67.326ZM107.686 52.2513L101.572 67.326L94.6833 52.2513H96.913L101.991 63.2814C102.185 62.8768 104.986 53.3206 105.53 52.2513H107.686ZM118.336 67.326H109.279V52.205H117.957V54.0155H111.281V57.7317H117.457V59.53H111.281V65.5154H118.336V67.326Z" fill="url(#paint3_linear_547_220)"/>
<path fill-rule="evenodd" clip-rule="evenodd" d="M0.186941 20.7867C8.53821 13.9277 16.5451 7.08262 24.8966 0.223227C25.4214 -0.186054 26.1347 -0.0686824 26.1347 0.878265L26.2371 15.13C22.7007 18.3017 19.0596 21.3602 15.5229 24.5318C14.6114 24.7724 14.0229 24.1581 13.5009 24.4479L0.0170898 33.9036L0.186941 20.7867Z" fill="url(#paint4_linear_547_220)"/>
<path fill-rule="evenodd" clip-rule="evenodd" d="M27.7103 15.1673L27.6447 0.794625C33.6174 5.79316 40.1075 11.5119 46.0802 16.5106C49.3673 17.0038 51.3767 18.9141 52.5882 21.1634C52.6521 27.4752 47.3689 29.4486 44.462 29.5099L27.7103 15.1673Z" fill="url(#paint5_linear_547_220)"/>
<path fill-rule="evenodd" clip-rule="evenodd" d="M12.0212 28.6078L21.4685 37.002C21.8735 37.3618 21.6582 38.447 21.2415 38.7897L13.5536 45.1129C13.1366 45.4559 11.8535 45.4448 11.436 45.1009L1.36119 36.8068C0.943706 36.4631 0.776661 35.1088 1.21991 34.7998L10.0297 28.6537C10.4729 28.3445 11.6166 28.2484 12.0212 28.6078Z" fill="url(#paint6_linear_547_220)"/>
<path fill-rule="evenodd" clip-rule="evenodd" d="M19.9219 45.1255L24.8613 40.4791C27.1186 38.3556 29.2423 35.6804 32.1947 38.1044L52.1736 54.5099C56.0705 57.7097 50.1653 68.1882 42.8864 64.8155L39.67 62.2942L38.4895 55.5363C38.4426 55.2676 32.644 50.1779 30.5953 48.5335C29.4091 47.5816 27.4759 51.7857 26.2759 52.72L10.5627 64.9544C5.95285 66.1661 -1.30363 65.1906 0.589089 54.9154C3.21768 52.4244 5.45548 50.9538 8.38605 48.5384C14.8757 49.6594 15.7021 49.095 19.9219 45.1255Z" fill="url(#paint7_linear_547_220)"/>
<path fill-rule="evenodd" clip-rule="evenodd" d="M19.9219 45.1255C15.8349 49.2159 14.8757 49.6597 8.38605 48.5384C5.45548 50.9538 3.21768 52.4244 0.589089 54.9154C-1.30363 65.1906 5.95285 66.1661 10.5627 64.9544L25.6233 53.2338L25.5317 39.5108L19.9219 45.1255Z" fill="#726696"/>
<path fill-rule="evenodd" clip-rule="evenodd" d="M29.7314 54.37L39.67 62.2942C39.8283 54.431 37.3623 53.1328 30.8618 48.2598C30.5994 48.2755 30.3689 48.2926 30.1219 48.3093C29.9687 51.1157 29.9348 51.9258 29.7314 54.37Z" fill="#816CA9"/>
<path fill-rule="evenodd" clip-rule="evenodd" d="M25.7851 14.7571C23.2163 17.179 13.793 24.3564 13.8714 24.3699C14.1537 24.4194 15.2911 24.7267 15.5402 24.5119L26.2371 15.13L26.2333 14.5507C26.2333 14.4701 25.8402 14.7053 25.7851 14.7571Z" fill="url(#paint8_linear_547_220)"/>
<path fill-rule="evenodd" clip-rule="evenodd" d="M46.5382 17.7005C48.8003 18.3424 51.8934 20.4361 52.2723 21.5884C53.205 24.4234 48.5645 28.7673 45.266 28.4045C38.7066 27.6826 41.9729 16.4052 46.5382 17.7005Z" fill="#9C7BFF"/>
<path d="M6.7445 73.0597C6.67347 72.8295 6.57546 72.6236 6.45046 72.4418C6.3283 72.2571 6.18058 72.0994 6.00728 71.9688C5.83683 71.8381 5.6408 71.7401 5.41921 71.6747C5.19762 71.6065 4.95614 71.5724 4.69478 71.5724C4.22603 71.5724 3.80842 71.6903 3.44194 71.9261C3.07546 72.1619 2.78711 72.5085 2.57688 72.9659C2.3695 73.4205 2.2658 73.9744 2.2658 74.6278C2.2658 75.2869 2.3695 75.8452 2.57688 76.3026C2.78427 76.7599 3.07262 77.108 3.44194 77.3466C3.81126 77.5824 4.24023 77.7003 4.72887 77.7003C5.17205 77.7003 5.55558 77.6151 5.87944 77.4446C6.20614 77.2741 6.45756 77.0327 6.6337 76.7202C6.80984 76.4048 6.89791 76.0355 6.89791 75.6122L7.25586 75.6676H4.88654V74.4318H8.42773V75.4801C8.42773 76.2273 8.26864 76.8736 7.95046 77.419C7.63228 77.9645 7.19478 78.3849 6.63796 78.6804C6.08114 78.973 5.44194 79.1193 4.72035 79.1193C3.91637 79.1193 3.21041 78.9389 2.60245 78.5781C1.99734 78.2145 1.52433 77.6989 1.18342 77.0312C0.845348 76.3608 0.676314 75.5653 0.676314 74.6449C0.676314 73.9403 0.775746 73.3111 0.974609 72.7571C1.17631 72.2031 1.45756 71.733 1.81836 71.3466C2.17915 70.9574 2.60245 70.6619 3.08825 70.4602C3.57404 70.2557 4.10245 70.1534 4.67347 70.1534C5.15643 70.1534 5.60671 70.2244 6.02433 70.3665C6.44194 70.5057 6.81268 70.7045 7.13654 70.9631C7.46325 71.2216 7.73171 71.5284 7.94194 71.8835C8.15217 72.2386 8.28995 72.6307 8.35529 73.0597H6.7445ZM10.2985 79V72.4545H11.8411V79H10.2985ZM11.074 71.5256C10.8297 71.5256 10.6195 71.4446 10.4434 71.2827C10.2672 71.1179 10.1792 70.9205 10.1792 70.6903C10.1792 70.4574 10.2672 70.2599 10.4434 70.098C10.6195 69.9332 10.8297 69.8509 11.074 69.8509C11.3212 69.8509 11.5314 69.9332 11.7047 70.098C11.8809 70.2599 11.9689 70.4574 11.9689 70.6903C11.9689 70.9205 11.8809 71.1179 11.7047 71.2827C11.5314 71.4446 11.3212 71.5256 11.074 71.5256ZM19.274 72.4545L16.943 79H15.2385L12.9075 72.4545H14.5524L16.0566 77.3168H16.1248L17.6333 72.4545H19.274ZM23.0165 79.1278C22.3603 79.1278 21.7935 78.9915 21.3162 78.7188C20.8418 78.4432 20.4767 78.054 20.2211 77.5511C19.9654 77.0455 19.8375 76.4503 19.8375 75.7656C19.8375 75.0923 19.9654 74.5014 20.2211 73.9929C20.4796 73.4815 20.8404 73.0838 21.3034 72.7997C21.7665 72.5128 22.3105 72.3693 22.9355 72.3693C23.339 72.3693 23.7196 72.4347 24.0776 72.5653C24.4384 72.6932 24.7566 72.892 25.0321 73.1619C25.3105 73.4318 25.5293 73.7756 25.6884 74.1932C25.8475 74.608 25.927 75.1023 25.927 75.6761V76.1491H20.562V75.1094H24.4483C24.4455 74.8139 24.3816 74.5511 24.2566 74.321C24.1316 74.0881 23.9569 73.9048 23.7324 73.7713C23.5108 73.6378 23.2523 73.571 22.9569 73.571C22.6415 73.571 22.3645 73.6477 22.1259 73.8011C21.8873 73.9517 21.7012 74.1506 21.5676 74.3977C21.437 74.642 21.3702 74.9105 21.3674 75.2031V76.1108C21.3674 76.4915 21.437 76.8182 21.5762 77.0909C21.7154 77.3608 21.91 77.5682 22.16 77.7131C22.41 77.8551 22.7026 77.9261 23.0378 77.9261C23.2623 77.9261 23.4654 77.8949 23.6472 77.8324C23.829 77.767 23.9867 77.6719 24.1202 77.5469C24.2537 77.4219 24.3546 77.267 24.4228 77.0824L25.8631 77.2443C25.7722 77.625 25.5989 77.9574 25.3432 78.2415C25.0904 78.5227 24.7665 78.7415 24.3716 78.8977C23.9767 79.0511 23.525 79.1278 23.0165 79.1278ZM30.2086 79V72.4545H31.7512V79H30.2086ZM30.9842 71.5256C30.7399 71.5256 30.5297 71.4446 30.3535 71.2827C30.1774 71.1179 30.0893 70.9205 30.0893 70.6903C30.0893 70.4574 30.1774 70.2599 30.3535 70.098C30.5297 69.9332 30.7399 69.8509 30.9842 69.8509C31.2314 69.8509 31.4416 69.9332 31.6149 70.098C31.791 70.2599 31.8791 70.4574 31.8791 70.6903C31.8791 70.9205 31.791 71.1179 31.6149 71.2827C31.4416 71.4446 31.2314 71.5256 30.9842 71.5256ZM33.3375 79V72.4545H34.812V73.5668H34.8887C35.025 73.1918 35.2509 72.8991 35.5662 72.6889C35.8816 72.4759 36.258 72.3693 36.6955 72.3693C37.1387 72.3693 37.5123 72.4773 37.8162 72.6932C38.123 72.9062 38.339 73.1974 38.464 73.5668H38.5321C38.677 73.2031 38.9213 72.9134 39.2651 72.6974C39.6117 72.4787 40.0222 72.3693 40.4966 72.3693C41.0989 72.3693 41.5904 72.5597 41.9711 72.9403C42.3517 73.321 42.5421 73.8764 42.5421 74.6065V79H40.9952V74.8452C40.9952 74.4389 40.8873 74.142 40.6713 73.9545C40.4554 73.7642 40.1912 73.669 39.8787 73.669C39.5066 73.669 39.2154 73.7855 39.0051 74.0185C38.7978 74.2486 38.6941 74.5483 38.6941 74.9176V79H37.1813V74.7812C37.1813 74.4432 37.079 74.1733 36.8745 73.9716C36.6728 73.7699 36.4086 73.669 36.0819 73.669C35.8603 73.669 35.6586 73.7259 35.4767 73.8395C35.2949 73.9503 35.15 74.108 35.0421 74.3125C34.9341 74.5142 34.8801 74.75 34.8801 75.0199V79H33.3375ZM45.9906 79.1321C45.5758 79.1321 45.2022 79.0582 44.8699 78.9105C44.5403 78.7599 44.2789 78.5384 44.0858 78.2457C43.8954 77.9531 43.8002 77.5923 43.8002 77.1634C43.8002 76.794 43.8684 76.4886 44.0048 76.2472C44.1412 76.0057 44.3272 75.8125 44.563 75.6676C44.7988 75.5227 45.0645 75.4134 45.3599 75.3395C45.6582 75.2628 45.9664 75.2074 46.2846 75.1733C46.6681 75.1335 46.9792 75.098 47.2179 75.0668C47.4565 75.0327 47.6298 74.9815 47.7377 74.9134C47.8485 74.8423 47.9039 74.733 47.9039 74.5852V74.5597C47.9039 74.2386 47.8088 73.9901 47.6184 73.8139C47.4281 73.6378 47.1539 73.5497 46.796 73.5497C46.4181 73.5497 46.1184 73.6321 45.8968 73.7969C45.6781 73.9616 45.5304 74.1562 45.4537 74.3807L44.0133 74.1761C44.127 73.7784 44.3145 73.446 44.5758 73.179C44.8372 72.9091 45.1568 72.7074 45.5346 72.5739C45.9125 72.4375 46.3301 72.3693 46.7875 72.3693C47.1028 72.3693 47.4167 72.4062 47.7292 72.4801C48.0417 72.554 48.3272 72.6761 48.5858 72.8466C48.8443 73.0142 49.0517 73.2429 49.2079 73.5327C49.367 73.8224 49.4466 74.1847 49.4466 74.6193V79H47.9636V78.1009H47.9125C47.8187 78.2827 47.6866 78.4531 47.5162 78.6122C47.3485 78.7685 47.1369 78.8949 46.8812 78.9915C46.6284 79.0852 46.3315 79.1321 45.9906 79.1321ZM46.3912 77.9986C46.7008 77.9986 46.9693 77.9375 47.1966 77.8153C47.4238 77.6903 47.5985 77.5256 47.7207 77.321C47.8457 77.1165 47.9082 76.8935 47.9082 76.652V75.8807C47.8599 75.9205 47.7775 75.9574 47.661 75.9915C47.5474 76.0256 47.4196 76.0554 47.2775 76.081C47.1355 76.1065 46.9949 76.1293 46.8556 76.1491C46.7164 76.169 46.5957 76.1861 46.4934 76.2003C46.2633 76.2315 46.0574 76.2827 45.8755 76.3537C45.6937 76.4247 45.5502 76.5241 45.4451 76.652C45.34 76.777 45.2875 76.9389 45.2875 77.1378C45.2875 77.4219 45.3912 77.6364 45.5985 77.7812C45.8059 77.9261 46.0701 77.9986 46.3912 77.9986ZM53.8443 81.5909C53.2903 81.5909 52.8145 81.5156 52.4167 81.3651C52.019 81.2173 51.6994 81.0185 51.4579 80.7685C51.2164 80.5185 51.0488 80.2415 50.9551 79.9375L52.3443 79.6009C52.4068 79.7287 52.4977 79.8551 52.617 79.9801C52.7363 80.108 52.8968 80.2131 53.0985 80.2955C53.3031 80.3807 53.5602 80.4233 53.8699 80.4233C54.3074 80.4233 54.6696 80.3168 54.9565 80.1037C55.2434 79.8935 55.3869 79.5469 55.3869 79.0639V77.8239H55.3102C55.2306 77.983 55.1142 78.1463 54.9608 78.3139C54.8102 78.4815 54.6099 78.6222 54.3599 78.7358C54.1127 78.8494 53.8017 78.9062 53.4267 78.9062C52.9238 78.9062 52.4679 78.7884 52.0588 78.5526C51.6525 78.3139 51.3287 77.9588 51.0872 77.4872C50.8485 77.0128 50.7292 76.419 50.7292 75.706C50.7292 74.9872 50.8485 74.3807 51.0872 73.8864C51.3287 73.3892 51.6539 73.0128 52.063 72.7571C52.4721 72.4986 52.9281 72.3693 53.4309 72.3693C53.8145 72.3693 54.1298 72.4347 54.377 72.5653C54.627 72.6932 54.8258 72.848 54.9735 73.0298C55.1213 73.2088 55.2335 73.3778 55.3102 73.5369H55.3954V72.4545H56.9167V79.1065C56.9167 79.6662 56.7832 80.1293 56.5162 80.4957C56.2491 80.8622 55.8841 81.1364 55.421 81.3182C54.9579 81.5 54.4324 81.5909 53.8443 81.5909ZM53.8571 77.696C54.1838 77.696 54.4622 77.6165 54.6923 77.4574C54.9224 77.2983 55.0971 77.0696 55.2164 76.7713C55.3358 76.473 55.3954 76.1151 55.3954 75.6974C55.3954 75.2855 55.3358 74.9247 55.2164 74.6151C55.1 74.3054 54.9267 74.0653 54.6966 73.8949C54.4693 73.7216 54.1895 73.6349 53.8571 73.6349C53.5133 73.6349 53.2264 73.7244 52.9963 73.9034C52.7662 74.0824 52.5929 74.3281 52.4764 74.6406C52.3599 74.9503 52.3017 75.3026 52.3017 75.6974C52.3017 76.098 52.3599 76.4489 52.4764 76.75C52.5957 77.0483 52.7704 77.2812 53.0005 77.4489C53.2335 77.6136 53.519 77.696 53.8571 77.696ZM58.4977 79V72.4545H60.0403V79H58.4977ZM59.2733 71.5256C59.0289 71.5256 58.8187 71.4446 58.6426 71.2827C58.4664 71.1179 58.3784 70.9205 58.3784 70.6903C58.3784 70.4574 58.4664 70.2599 58.6426 70.098C58.8187 69.9332 59.0289 69.8509 59.2733 69.8509C59.5204 69.8509 59.7306 69.9332 59.9039 70.098C60.0801 70.2599 60.1681 70.4574 60.1681 70.6903C60.1681 70.9205 60.0801 71.1179 59.9039 71.2827C59.7306 71.4446 59.5204 71.5256 59.2733 71.5256ZM63.1692 75.1648V79H61.6266V72.4545H63.101V73.5668H63.1777C63.3283 73.2003 63.5684 72.9091 63.8979 72.6932C64.2303 72.4773 64.6408 72.3693 65.1294 72.3693C65.5811 72.3693 65.9746 72.4659 66.3098 72.6591C66.6479 72.8523 66.9093 73.1321 67.0939 73.4986C67.2814 73.8651 67.3738 74.3097 67.3709 74.8324V79H65.8283V75.071C65.8283 74.6335 65.7147 74.2912 65.4874 74.044C65.263 73.7969 64.9519 73.6733 64.5542 73.6733C64.2843 73.6733 64.0442 73.733 63.834 73.8523C63.6266 73.9687 63.4632 74.1378 63.3439 74.3594C63.2275 74.581 63.1692 74.8494 63.1692 75.1648ZM70.8226 79.1321C70.4078 79.1321 70.0343 79.0582 69.7019 78.9105C69.3723 78.7599 69.111 78.5384 68.9178 78.2457C68.7275 77.9531 68.6323 77.5923 68.6323 77.1634C68.6323 76.794 68.7005 76.4886 68.8368 76.2472C68.9732 76.0057 69.1593 75.8125 69.3951 75.6676C69.6309 75.5227 69.8965 75.4134 70.1919 75.3395C70.4902 75.2628 70.7985 75.2074 71.1167 75.1733C71.5002 75.1335 71.8113 75.098 72.0499 75.0668C72.2885 75.0327 72.4618 74.9815 72.5698 74.9134C72.6806 74.8423 72.736 74.733 72.736 74.5852V74.5597C72.736 74.2386 72.6408 73.9901 72.4505 73.8139C72.2601 73.6378 71.986 73.5497 71.628 73.5497C71.2502 73.5497 70.9505 73.6321 70.7289 73.7969C70.5101 73.9616 70.3624 74.1562 70.2857 74.3807L68.8453 74.1761C68.959 73.7784 69.1465 73.446 69.4078 73.179C69.6692 72.9091 69.9888 72.7074 70.3667 72.5739C70.7445 72.4375 71.1621 72.3693 71.6195 72.3693C71.9348 72.3693 72.2488 72.4062 72.5613 72.4801C72.8738 72.554 73.1593 72.6761 73.4178 72.8466C73.6763 73.0142 73.8837 73.2429 74.04 73.5327C74.199 73.8224 74.2786 74.1847 74.2786 74.6193V79H72.7956V78.1009H72.7445C72.6507 78.2827 72.5186 78.4531 72.3482 78.6122C72.1806 78.7685 71.9689 78.8949 71.7132 78.9915C71.4604 79.0852 71.1635 79.1321 70.8226 79.1321ZM71.2232 77.9986C71.5328 77.9986 71.8013 77.9375 72.0286 77.8153C72.2559 77.6903 72.4306 77.5256 72.5527 77.321C72.6777 77.1165 72.7402 76.8935 72.7402 76.652V75.8807C72.6919 75.9205 72.6096 75.9574 72.4931 75.9915C72.3794 76.0256 72.2516 76.0554 72.1096 76.081C71.9675 76.1065 71.8269 76.1293 71.6877 76.1491C71.5485 76.169 71.4277 76.1861 71.3255 76.2003C71.0953 76.2315 70.8894 76.2827 70.7076 76.3537C70.5257 76.4247 70.3823 76.5241 70.2772 76.652C70.1721 76.777 70.1195 76.9389 70.1195 77.1378C70.1195 77.4219 70.2232 77.6364 70.4306 77.7812C70.638 77.9261 70.9022 77.9986 71.2232 77.9986ZM79.0982 72.4545V73.6477H75.3354V72.4545H79.0982ZM76.2644 70.8864H77.807V77.0312C77.807 77.2386 77.8382 77.3977 77.9007 77.5085C77.9661 77.6165 78.0513 77.6903 78.1564 77.7301C78.2615 77.7699 78.378 77.7898 78.5059 77.7898C78.6025 77.7898 78.6905 77.7827 78.7701 77.7685C78.8525 77.7543 78.915 77.7415 78.9576 77.7301L79.2175 78.9361C79.1351 78.9645 79.0172 78.9957 78.8638 79.0298C78.7132 79.0639 78.5286 79.0838 78.3098 79.0895C77.9235 79.1009 77.5755 79.0426 77.2658 78.9148C76.9561 78.7841 76.7104 78.5824 76.5286 78.3097C76.3496 78.0369 76.2615 77.696 76.2644 77.2869V70.8864ZM80.3883 79V72.4545H81.9309V79H80.3883ZM81.1639 71.5256C80.9196 71.5256 80.7093 71.4446 80.5332 71.2827C80.3571 71.1179 80.269 70.9205 80.269 70.6903C80.269 70.4574 80.3571 70.2599 80.5332 70.098C80.7093 69.9332 80.9196 69.8509 81.1639 69.8509C81.411 69.8509 81.6213 69.9332 81.7946 70.098C81.9707 70.2599 82.0588 70.4574 82.0588 70.6903C82.0588 70.9205 81.9707 71.1179 81.7946 71.2827C81.6213 71.4446 81.411 71.5256 81.1639 71.5256ZM86.3723 79.1278C85.7331 79.1278 85.1792 78.9872 84.7104 78.706C84.2417 78.4247 83.878 78.0312 83.6195 77.5256C83.3638 77.0199 83.236 76.429 83.236 75.7528C83.236 75.0767 83.3638 74.4844 83.6195 73.9759C83.878 73.4673 84.2417 73.0724 84.7104 72.7912C85.1792 72.5099 85.7331 72.3693 86.3723 72.3693C87.0115 72.3693 87.5655 72.5099 88.0343 72.7912C88.503 73.0724 88.8652 73.4673 89.1209 73.9759C89.3794 74.4844 89.5087 75.0767 89.5087 75.7528C89.5087 76.429 89.3794 77.0199 89.1209 77.5256C88.8652 78.0312 88.503 78.4247 88.0343 78.706C87.5655 78.9872 87.0115 79.1278 86.3723 79.1278ZM86.3809 77.892C86.7275 77.892 87.0172 77.7969 87.2502 77.6065C87.4831 77.4134 87.6564 77.1548 87.7701 76.831C87.8865 76.5071 87.9448 76.1463 87.9448 75.7486C87.9448 75.348 87.8865 74.9858 87.7701 74.6619C87.6564 74.3352 87.4831 74.0753 87.2502 73.8821C87.0172 73.6889 86.7275 73.5923 86.3809 73.5923C86.0257 73.5923 85.7303 73.6889 85.4945 73.8821C85.2615 74.0753 85.0868 74.3352 84.9703 74.6619C84.8567 74.9858 84.7999 75.348 84.7999 75.7486C84.7999 76.1463 84.8567 76.5071 84.9703 76.831C85.0868 77.1548 85.2615 77.4134 85.4945 77.6065C85.7303 77.7969 86.0257 77.892 86.3809 77.892ZM92.3606 75.1648V79H90.818V72.4545H92.2924V73.5668H92.3691C92.5197 73.2003 92.7598 72.9091 93.0893 72.6932C93.4217 72.4773 93.8322 72.3693 94.3208 72.3693C94.7725 72.3693 95.166 72.4659 95.5012 72.6591C95.8393 72.8523 96.1007 73.1321 96.2853 73.4986C96.4728 73.8651 96.5652 74.3097 96.5623 74.8324V79H95.0197V75.071C95.0197 74.6335 94.9061 74.2912 94.6788 74.044C94.4544 73.7969 94.1433 73.6733 93.7456 73.6733C93.4757 73.6733 93.2356 73.733 93.0254 73.8523C92.818 73.9687 92.6547 74.1378 92.5353 74.3594C92.4189 74.581 92.3606 74.8494 92.3606 75.1648ZM102.65 70.2727V79H101.107V70.2727H102.65ZM104.236 79V72.4545H105.779V79H104.236ZM105.012 71.5256C104.767 71.5256 104.557 71.4446 104.381 71.2827C104.205 71.1179 104.117 70.9205 104.117 70.6903C104.117 70.4574 104.205 70.2599 104.381 70.098C104.557 69.9332 104.767 69.8509 105.012 69.8509C105.259 69.8509 105.469 69.9332 105.642 70.098C105.818 70.2599 105.906 70.4574 105.906 70.6903C105.906 70.9205 105.818 71.1179 105.642 71.2827C105.469 71.4446 105.259 71.5256 105.012 71.5256ZM110.68 72.4545V73.6477H106.811V72.4545H110.68ZM107.778 79V71.8366C107.778 71.3963 107.869 71.0298 108.051 70.7372C108.236 70.4446 108.483 70.2259 108.792 70.081C109.102 69.9361 109.446 69.8636 109.824 69.8636C110.091 69.8636 110.328 69.8849 110.535 69.9276C110.743 69.9702 110.896 70.0085 110.996 70.0426L110.689 71.2358C110.623 71.2159 110.541 71.196 110.442 71.1761C110.342 71.1534 110.231 71.142 110.109 71.142C109.822 71.142 109.619 71.2116 109.5 71.3509C109.383 71.4872 109.325 71.6832 109.325 71.9389V79H107.778ZM114.54 79.1278C113.884 79.1278 113.317 78.9915 112.84 78.7188C112.365 78.4432 112 78.054 111.744 77.5511C111.489 77.0455 111.361 76.4503 111.361 75.7656C111.361 75.0923 111.489 74.5014 111.744 73.9929C112.003 73.4815 112.364 73.0838 112.827 72.7997C113.29 72.5128 113.834 72.3693 114.459 72.3693C114.862 72.3693 115.243 72.4347 115.601 72.5653C115.962 72.6932 116.28 72.892 116.556 73.1619C116.834 73.4318 117.053 73.7756 117.212 74.1932C117.371 74.608 117.45 75.1023 117.45 75.6761V76.1491H112.085V75.1094H115.972C115.969 74.8139 115.905 74.5511 115.78 74.321C115.655 74.0881 115.48 73.9048 115.256 73.7713C115.034 73.6378 114.776 73.571 114.48 73.571C114.165 73.571 113.888 73.6477 113.649 73.8011C113.411 73.9517 113.225 74.1506 113.091 74.3977C112.96 74.642 112.894 74.9105 112.891 75.2031V76.1108C112.891 76.4915 112.96 76.8182 113.1 77.0909C113.239 77.3608 113.433 77.5682 113.683 77.7131C113.933 77.8551 114.226 77.9261 114.561 77.9261C114.786 77.9261 114.989 77.8949 115.171 77.8324C115.352 77.767 115.51 77.6719 115.644 77.5469C115.777 77.4219 115.878 77.267 115.946 77.0824L117.387 77.2443C117.296 77.625 117.122 77.9574 116.867 78.2415C116.614 78.5227 116.29 78.7415 115.895 78.8977C115.5 79.0511 115.048 79.1278 114.54 79.1278Z" fill="#352C44"/>
<defs>
<linearGradient id="paint0_linear_547_220" x1="96.5805" y1="50.2328" x2="96.5805" y2="67.326" gradientUnits="userSpaceOnUse">
<stop stop-color="#352C44"/>
<stop offset="1" stop-color="#7A61A8"/>
</linearGradient>
<linearGradient id="paint1_linear_547_220" x1="96.5805" y1="50.2328" x2="96.5805" y2="67.326" gradientUnits="userSpaceOnUse">
<stop stop-color="#352C44"/>
<stop offset="1" stop-color="#7A61A8"/>
</linearGradient>
<linearGradient id="paint2_linear_547_220" x1="96.5805" y1="50.2328" x2="96.5805" y2="67.326" gradientUnits="userSpaceOnUse">
<stop stop-color="#352C44"/>
<stop offset="1" stop-color="#7A61A8"/>
</linearGradient>
<linearGradient id="paint3_linear_547_220" x1="96.5805" y1="50.2328" x2="96.5805" y2="67.326" gradientUnits="userSpaceOnUse">
<stop stop-color="#352C44"/>
<stop offset="1" stop-color="#7A61A8"/>
</linearGradient>
<linearGradient id="paint4_linear_547_220" x1="26.7146" y1="0" x2="26.7146" y2="65.4761" gradientUnits="userSpaceOnUse">
<stop stop-color="#352C44"/>
<stop offset="1" stop-color="#7A61A8"/>
</linearGradient>
<linearGradient id="paint5_linear_547_220" x1="26.7146" y1="0" x2="26.7146" y2="65.4761" gradientUnits="userSpaceOnUse">
<stop stop-color="#352C44"/>
<stop offset="1" stop-color="#7A61A8"/>
</linearGradient>
<linearGradient id="paint6_linear_547_220" x1="26.7146" y1="0" x2="26.7146" y2="65.4761" gradientUnits="userSpaceOnUse">
<stop stop-color="#352C44"/>
<stop offset="1" stop-color="#7A61A8"/>
</linearGradient>
<linearGradient id="paint7_linear_547_220" x1="26.7146" y1="0" x2="26.7146" y2="65.4761" gradientUnits="userSpaceOnUse">
<stop stop-color="#352C44"/>
<stop offset="1" stop-color="#7A61A8"/>
</linearGradient>
<linearGradient id="paint8_linear_547_220" x1="26.7146" y1="0" x2="26.7146" y2="65.4761" gradientUnits="userSpaceOnUse">
<stop stop-color="#352C44"/>
<stop offset="1" stop-color="#7A61A8"/>
</linearGradient>
</defs>
</svg>
