<svg width="384" height="60" viewBox="0 0 384 60" fill="none" xmlns="http://www.w3.org/2000/svg">
<g filter="url(#filter0_ii_541_199)">
<rect x="1" y="3" width="382" height="54.0212" rx="24" fill="#604490" fill-opacity="0.3"/>
</g>
<rect x="0.5" y="2.5" width="383" height="55.0212" rx="24.5" stroke="#C6C6C6" stroke-linejoin="round"/>
<path d="M325.214 19L341 30.2544L325.214 41.5088M324 21.8136L334.929 30.2544L324 38.6952" stroke="white" stroke-linecap="round" stroke-linejoin="round"/>
<path d="M108.24 20.52C109.333 19.2667 110.507 18.64 111.76 18.64C113.013 18.64 113.76 19.6 114 21.52V21.64C114 22.6 113.453 24.6933 112.36 27.92L114.24 27.52C116.533 27.52 117.867 28.9867 118.24 31.92V32.52C118.24 36.04 116.027 39.2533 111.6 42.16C110.16 42.72 109.12 43 108.48 43C106.32 43 104.827 41.7467 104 39.24C104.053 38.9467 104.387 38.5333 105 38C105.293 25.9467 105.547 19.92 105.76 19.92C106.213 19.4667 106.627 19.24 107 19.24C107.72 19.5067 108.08 19.9333 108.08 20.52H108.24ZM107.84 31.52H108C110.187 27.3867 111.347 24.1867 111.48 21.92V21H111.08C110.52 21 109.773 22.5067 108.84 25.52C108.173 28.3733 107.84 30.3733 107.84 31.52ZM109.36 34L108.76 34.24L107.76 34.16V34.24L107.6 34.76V38.92L107.48 40.4L108.36 40.64C110.627 40.64 112.867 38.9333 115.08 35.52C115.693 34 116 32.7467 116 31.76C116 30.5333 115.413 29.92 114.24 29.92H114.08C112.8 29.92 111.227 31.28 109.36 34ZM127.318 27.56C128.491 27.56 129.078 28.0267 129.078 28.96L128.718 29.72L128.478 37.04C128.478 40.3467 129.145 42.4 130.478 43.2L130.558 43.8C130.478 44.5733 130.118 44.96 129.478 44.96H129.238C127.238 43.6 126.238 41.52 126.238 38.72H125.958C124.891 41.7067 123.598 43.2 122.078 43.2C120.665 42.8 119.958 41.7467 119.958 40.04C119.958 36.28 121.465 32.5333 124.478 28.8C125.491 27.9733 126.438 27.56 127.318 27.56ZM122.478 38.44L122.318 39.56V40.32H122.718C124.718 35.3333 125.718 32.2933 125.718 31.2H125.558C124.011 32.9333 122.985 35.3467 122.478 38.44ZM135.598 29.44L137.238 29.2C137.904 29.2 138.278 29.6133 138.358 30.44C138.358 31.16 137.491 31.6267 135.758 31.84C134.664 32.6933 134.118 33.7867 134.118 35.12V36.44C134.651 39.3733 135.558 40.84 136.838 40.84H137.238C137.984 40.84 139.104 40.1333 140.598 38.72H140.838C141.371 38.72 141.798 39.0933 142.118 39.84C141.744 40.9867 140.544 42.0267 138.518 42.96C138.144 43.12 137.678 43.2 137.118 43.2C134.371 43.2 132.584 41.04 131.758 36.72V35.84C131.758 32.72 133.038 30.5867 135.598 29.44ZM146.175 21.84H146.415C146.762 21.84 147.095 22.1333 147.415 22.72L147.255 25.44V26.96L147.415 33.96L147.535 34.36H147.655C148.802 33.2933 149.802 31.4133 150.655 28.72L151.535 28.44C152.282 28.5467 152.655 28.88 152.655 29.44C152.655 31.1733 151.415 33.5067 148.935 36.44V36.72C152.215 40.5333 154.375 42.44 155.415 42.44H155.655L156.655 41.84H157.015C157.575 41.84 157.988 42.2133 158.255 42.96C158.255 43.8133 157.308 44.4 155.415 44.72C153.522 44.72 151.055 42.8 148.015 38.96H147.655L147.775 41.12V43.2C147.615 44.0267 147.202 44.44 146.535 44.44C145.788 44.28 145.415 43.8667 145.415 43.2V42.96L145.255 38.36C144.962 38.36 144.762 37.9467 144.655 37.12L145.175 36.12L144.935 27.12V25.36C144.935 23.0133 145.348 21.84 146.175 21.84ZM182.208 17.76L194.208 17C194.555 17 194.888 17.3333 195.208 18C195.208 19.0133 194.035 19.52 191.688 19.52L184.688 19.92L184.528 20C185.195 24.3467 185.528 32.6 185.528 44.76C185.395 45.9333 184.968 46.52 184.248 46.52C183.555 46.52 183.155 45.9867 183.048 44.92V35.64C183.048 29.4533 182.768 24.2933 182.208 20.16C177.435 20.6133 175.048 21.1467 175.048 21.76L174.688 21.92C173.862 21.68 173.448 21.2533 173.448 20.64C173.448 19.1733 176.368 18.2133 182.208 17.76ZM197.801 27.92C199.774 27.92 201.267 29.3867 202.281 32.32L202.441 33.16C202.441 36.0133 201.107 38.9333 198.441 41.92C197.374 42.9067 196.294 43.4 195.201 43.4C193.601 43.4 192.467 42.48 191.801 40.64C191.561 39.7867 191.441 39.04 191.441 38.4V37.92C191.441 33.7067 192.974 30.5067 196.041 28.32C196.574 28.0533 197.161 27.92 197.801 27.92ZM193.801 38.32C193.801 40.1333 194.267 41.04 195.201 41.04C197.147 41.04 198.761 38.5467 200.041 33.56V32.8C199.587 31.1467 198.747 30.32 197.521 30.32C197.041 30.32 196.801 30.6533 196.801 31.32C196.801 31.7733 196.267 32.1333 195.201 32.4C194.267 33.9733 193.801 35.9467 193.801 38.32ZM222.491 20.72C223.425 20.72 223.891 22.3467 223.891 25.6L224.131 31.84H224.211L230.611 29.36C231.251 23.92 231.838 21.2 232.371 21.2L232.891 21.12C233.345 21.12 233.758 21.48 234.131 22.2C233.198 26.7867 232.731 30.76 232.731 34.12V35.84C232.731 38.2933 233.318 40.6267 234.491 42.84C234.225 43.5867 233.798 43.96 233.211 43.96C231.931 43.96 230.985 41.3733 230.371 36.2V32.12H230.131C226.131 33.5333 224.131 34.44 224.131 34.84C224.131 41.1867 223.545 44.36 222.371 44.36H222.211C221.651 44.36 221.291 43.8933 221.131 42.96C221.531 40.0533 221.731 37.8 221.731 36.2L219.971 37.12L219.611 37.2C218.945 36.96 218.611 36.5467 218.611 35.96C218.611 35.3733 219.651 34.4533 221.731 33.2V33.12C221.651 28.5333 221.478 24.7333 221.211 21.72C221.211 21.1333 221.638 20.8 222.491 20.72ZM242.566 27.92C244.54 27.92 246.033 29.3867 247.046 32.32L247.206 33.16C247.206 36.0133 245.873 38.9333 243.206 41.92C242.14 42.9067 241.06 43.4 239.966 43.4C238.366 43.4 237.233 42.48 236.566 40.64C236.326 39.7867 236.206 39.04 236.206 38.4V37.92C236.206 33.7067 237.74 30.5067 240.806 28.32C241.34 28.0533 241.926 27.92 242.566 27.92ZM238.566 38.32C238.566 40.1333 239.033 41.04 239.966 41.04C241.913 41.04 243.526 38.5467 244.806 33.56V32.8C244.353 31.1467 243.513 30.32 242.286 30.32C241.806 30.32 241.566 30.6533 241.566 31.32C241.566 31.7733 241.033 32.1333 239.966 32.4C239.033 33.9733 238.566 35.9467 238.566 38.32ZM249.619 29C249.805 28.3333 250.232 28 250.899 28C251.565 28 252.005 28.6667 252.219 30H252.379L254.219 29.6C255.072 29.6 255.899 30.4 256.699 32H256.859C258.032 30.16 259.232 29.24 260.459 29.24C263.072 29.72 264.379 31.4267 264.379 34.36L264.459 35.76L264.099 43.84V44.6C264.099 45.2667 263.685 45.6533 262.859 45.76C262.032 45.76 261.619 44.7867 261.619 42.84L262.099 35.6C262.099 32.9333 261.472 31.6 260.219 31.6C259.499 31.6 258.632 33.3467 257.619 36.84C257.112 40.84 256.699 42.84 256.379 42.84C255.925 42.84 255.699 42.9333 255.699 43.12C254.872 43.0133 254.459 42.5867 254.459 41.84L254.979 37C254.899 33.6667 254.565 32 253.979 32H253.859C253.192 32.5067 252.859 33.5067 252.859 35V37.12L252.699 43.24C252.512 43.9067 252.099 44.24 251.459 44.24C250.899 44.24 250.539 43.7733 250.379 42.84L250.219 38.12L250.459 34.24C250.299 32.24 250.019 30.4933 249.619 29ZM270.274 28.64C271.341 28.6667 273.141 30.5333 275.674 34.24L275.754 34.92C275.754 35.6667 273.927 36.24 270.274 36.64L270.154 36.76V36.92C270.714 39.32 271.301 40.52 271.914 40.52H272.394C273.247 40.52 274.541 39.6 276.274 37.76H276.514C277.047 37.76 277.461 38.1467 277.754 38.92C277.754 39.56 276.634 40.6667 274.394 42.24C273.807 42.5867 273.101 42.84 272.274 43C270.114 43 268.607 40.9733 267.754 36.92C266.527 36.7333 265.914 36.2267 265.914 35.4C265.914 34.8133 266.367 34.4267 267.274 34.24V34.4L267.674 34.24V33.24C267.674 30.1733 268.541 28.64 270.274 28.64ZM270.514 31.52H270.154L269.994 33V34.24H270.154C271.647 34.1867 272.394 34.0267 272.394 33.76C271.701 32.72 271.074 31.9733 270.514 31.52Z" fill="white"/>
<defs>
<filter id="filter0_ii_541_199" x="0" y="2" width="392" height="64.0212" filterUnits="userSpaceOnUse" color-interpolation-filters="sRGB">
<feFlood flood-opacity="0" result="BackgroundImageFix"/>
<feBlend mode="normal" in="SourceGraphic" in2="BackgroundImageFix" result="shape"/>
<feColorMatrix in="SourceAlpha" type="matrix" values="0 0 0 0 0 0 0 0 0 0 0 0 0 0 0 0 0 0 127 0" result="hardAlpha"/>
<feOffset dx="8" dy="8"/>
<feGaussianBlur stdDeviation="25"/>
<feComposite in2="hardAlpha" operator="arithmetic" k2="-1" k3="1"/>
<feColorMatrix type="matrix" values="0 0 0 0 1 0 0 0 0 1 0 0 0 0 1 0 0 0 1 0"/>
<feBlend mode="overlay" in2="shape" result="effect1_innerShadow_541_199"/>
<feColorMatrix in="SourceAlpha" type="matrix" values="0 0 0 0 0 0 0 0 0 0 0 0 0 0 0 0 0 0 127 0" result="hardAlpha"/>
<feOffset dy="4"/>
<feGaussianBlur stdDeviation="2"/>
<feComposite in2="hardAlpha" operator="arithmetic" k2="-1" k3="1"/>
<feColorMatrix type="matrix" values="0 0 0 0 0 0 0 0 0 0 0 0 0 0 0 0 0 0 0.25 0"/>
<feBlend mode="normal" in2="effect1_innerShadow_541_199" result="effect2_innerShadow_541_199"/>
</filter>
</defs>
</svg>
