<svg width="323" height="72" viewBox="0 0 323 72" fill="none" xmlns="http://www.w3.org/2000/svg">
<g filter="url(#filter0_biiiiii_513_198)">
<path d="M0.636364 7.68182V0.181816H53V7.68182H31.0455V70H22.5909V7.68182H0.636364ZM73.0028 38.5V70H64.9574V0.181816H73.0028V25.8182H73.6847C74.9119 23.1136 76.7528 20.9659 79.2074 19.375C81.6847 17.7614 84.9801 16.9545 89.0938 16.9545C92.6619 16.9545 95.7869 17.6705 98.4688 19.1023C101.151 20.5114 103.23 22.6818 104.707 25.6136C106.207 28.5227 106.957 32.2273 106.957 36.7273V70H98.9119V37.2727C98.9119 33.1136 97.8324 29.8977 95.6733 27.625C93.5369 25.3295 90.571 24.1818 86.7756 24.1818C84.1392 24.1818 81.7756 24.7386 79.6847 25.8523C77.6165 26.9659 75.9801 28.5909 74.7756 30.7273C73.5938 32.8636 73.0028 35.4545 73.0028 38.5ZM137.085 71.2273C133.767 71.2273 130.756 70.6023 128.051 69.3523C125.347 68.0795 123.199 66.25 121.608 63.8636C120.017 61.4545 119.222 58.5455 119.222 55.1364C119.222 52.1364 119.813 49.7045 120.994 47.8409C122.176 45.9545 123.756 44.4773 125.733 43.4091C127.71 42.3409 129.892 41.5455 132.278 41.0227C134.688 40.4773 137.108 40.0455 139.54 39.7273C142.722 39.3182 145.301 39.0114 147.278 38.8068C149.278 38.5795 150.733 38.2045 151.642 37.6818C152.574 37.1591 153.04 36.25 153.04 34.9545V34.6818C153.04 31.3182 152.119 28.7045 150.278 26.8409C148.46 24.9773 145.699 24.0455 141.994 24.0455C138.153 24.0455 135.142 24.8864 132.96 26.5682C130.778 28.25 129.244 30.0455 128.358 31.9545L120.722 29.2273C122.085 26.0455 123.903 23.5682 126.176 21.7955C128.472 20 130.972 18.75 133.676 18.0455C136.403 17.3182 139.085 16.9545 141.722 16.9545C143.403 16.9545 145.335 17.1591 147.517 17.5682C149.722 17.9545 151.847 18.7614 153.892 19.9886C155.96 21.2159 157.676 23.0682 159.04 25.5455C160.403 28.0227 161.085 31.3409 161.085 35.5V70H153.04V62.9091H152.631C152.085 64.0455 151.176 65.2614 149.903 66.5568C148.631 67.8523 146.938 68.9545 144.824 69.8636C142.71 70.7727 140.131 71.2273 137.085 71.2273ZM138.312 64C141.494 64 144.176 63.375 146.358 62.125C148.563 60.875 150.222 59.2614 151.335 57.2841C152.472 55.3068 153.04 53.2273 153.04 51.0455V43.6818C152.699 44.0909 151.949 44.4659 150.79 44.8068C149.653 45.125 148.335 45.4091 146.835 45.6591C145.358 45.8864 143.915 46.0909 142.506 46.2727C141.119 46.4318 139.994 46.5682 139.131 46.6818C137.04 46.9545 135.085 47.3977 133.267 48.0114C131.472 48.6023 130.017 49.5 128.903 50.7045C127.813 51.8864 127.267 53.5 127.267 55.5455C127.267 58.3409 128.301 60.4545 130.369 61.8864C132.46 63.2955 135.108 64 138.312 64ZM183.815 38.5V70H175.77V17.6364H183.543V25.8182H184.224C185.452 23.1591 187.315 21.0227 189.815 19.4091C192.315 17.7727 195.543 16.9545 199.497 16.9545C203.043 16.9545 206.145 17.6818 208.804 19.1364C211.463 20.5682 213.531 22.75 215.009 25.6818C216.486 28.5909 217.224 32.2727 217.224 36.7273V70H209.179V37.2727C209.179 33.1591 208.111 29.9545 205.974 27.6591C203.838 25.3409 200.906 24.1818 197.179 24.1818C194.611 24.1818 192.315 24.7386 190.293 25.8523C188.293 26.9659 186.713 28.5909 185.554 30.7273C184.395 32.8636 183.815 35.4545 183.815 38.5ZM239.426 50.9091L239.29 40.9545H240.926L263.835 17.6364H273.79L249.381 42.3182H248.699L239.426 50.9091ZM231.926 70V0.181816H239.972V70H231.926ZM265.199 70L244.744 44.0909L250.472 38.5L275.426 70H265.199ZM321.236 29.3636L314.009 31.4091C313.554 30.2045 312.884 29.0341 311.997 27.8977C311.134 26.7386 309.952 25.7841 308.452 25.0341C306.952 24.2841 305.031 23.9091 302.69 23.9091C299.486 23.9091 296.815 24.6477 294.679 26.125C292.565 27.5795 291.509 29.4318 291.509 31.6818C291.509 33.6818 292.236 35.2614 293.69 36.4205C295.145 37.5795 297.418 38.5455 300.509 39.3182L308.281 41.2273C312.963 42.3636 316.452 44.1023 318.747 46.4432C321.043 48.7614 322.19 51.75 322.19 55.4091C322.19 58.4091 321.327 61.0909 319.599 63.4545C317.895 65.8182 315.509 67.6818 312.44 69.0455C309.372 70.4091 305.804 71.0909 301.736 71.0909C296.395 71.0909 291.974 69.9318 288.474 67.6136C284.974 65.2955 282.759 61.9091 281.827 57.4545L289.463 55.5455C290.19 58.3636 291.565 60.4773 293.588 61.8864C295.634 63.2955 298.304 64 301.599 64C305.349 64 308.327 63.2045 310.531 61.6136C312.759 60 313.872 58.0682 313.872 55.8182C313.872 54 313.236 52.4773 311.963 51.25C310.69 50 308.736 49.0682 306.099 48.4545L297.372 46.4091C292.577 45.2727 289.054 43.5114 286.804 41.125C284.577 38.7159 283.463 35.7045 283.463 32.0909C283.463 29.1364 284.293 26.5227 285.952 24.25C287.634 21.9773 289.918 20.1932 292.804 18.8977C295.713 17.6023 299.009 16.9545 302.69 16.9545C307.872 16.9545 311.94 18.0909 314.895 20.3636C317.872 22.6364 319.986 25.6364 321.236 29.3636Z" fill="#98383A"/>
</g>
<defs>
<filter id="filter0_biiiiii_513_198" x="-99.3633" y="-99.8182" width="521.554" height="271.046" filterUnits="userSpaceOnUse" color-interpolation-filters="sRGB">
<feFlood flood-opacity="0" result="BackgroundImageFix"/>
<feGaussianBlur in="BackgroundImageFix" stdDeviation="50"/>
<feComposite in2="SourceAlpha" operator="in" result="effect1_backgroundBlur_513_198"/>
<feBlend mode="normal" in="SourceGraphic" in2="effect1_backgroundBlur_513_198" result="shape"/>
<feColorMatrix in="SourceAlpha" type="matrix" values="0 0 0 0 0 0 0 0 0 0 0 0 0 0 0 0 0 0 127 0" result="hardAlpha"/>
<feOffset dy="1"/>
<feGaussianBlur stdDeviation="20"/>
<feComposite in2="hardAlpha" operator="arithmetic" k2="-1" k3="1"/>
<feColorMatrix type="matrix" values="0 0 0 0 0.890196 0 0 0 0 0.929412 0 0 0 0 0.937255 0 0 0 0.2 0"/>
<feBlend mode="normal" in2="shape" result="effect2_innerShadow_513_198"/>
<feColorMatrix in="SourceAlpha" type="matrix" values="0 0 0 0 0 0 0 0 0 0 0 0 0 0 0 0 0 0 127 0" result="hardAlpha"/>
<feOffset dy="4"/>
<feGaussianBlur stdDeviation="9"/>
<feComposite in2="hardAlpha" operator="arithmetic" k2="-1" k3="1"/>
<feColorMatrix type="matrix" values="0 0 0 0 0.603922 0 0 0 0 0.572549 0 0 0 0 0.823529 0 0 0 0.3 0"/>
<feBlend mode="normal" in2="effect2_innerShadow_513_198" result="effect3_innerShadow_513_198"/>
<feColorMatrix in="SourceAlpha" type="matrix" values="0 0 0 0 0 0 0 0 0 0 0 0 0 0 0 0 0 0 127 0" result="hardAlpha"/>
<feOffset dy="98"/>
<feGaussianBlur stdDeviation="50"/>
<feComposite in2="hardAlpha" operator="arithmetic" k2="-1" k3="1"/>
<feColorMatrix type="matrix" values="0 0 0 0 0.792157 0 0 0 0 0.67451 0 0 0 0 1 0 0 0 0.3 0"/>
<feBlend mode="normal" in2="effect3_innerShadow_513_198" result="effect4_innerShadow_513_198"/>
<feColorMatrix in="SourceAlpha" type="matrix" values="0 0 0 0 0 0 0 0 0 0 0 0 0 0 0 0 0 0 127 0" result="hardAlpha"/>
<feOffset dy="-82"/>
<feGaussianBlur stdDeviation="34"/>
<feComposite in2="hardAlpha" operator="arithmetic" k2="-1" k3="1"/>
<feColorMatrix type="matrix" values="0 0 0 0 0.376471 0 0 0 0 0.266667 0 0 0 0 0.564706 0 0 0 0.3 0"/>
<feBlend mode="normal" in2="effect4_innerShadow_513_198" result="effect5_innerShadow_513_198"/>
<feColorMatrix in="SourceAlpha" type="matrix" values="0 0 0 0 0 0 0 0 0 0 0 0 0 0 0 0 0 0 127 0" result="hardAlpha"/>
<feOffset dy="7"/>
<feGaussianBlur stdDeviation="5.5"/>
<feComposite in2="hardAlpha" operator="arithmetic" k2="-1" k3="1"/>
<feColorMatrix type="matrix" values="0 0 0 0 1 0 0 0 0 1 0 0 0 0 1 0 0 0 1 0"/>
<feBlend mode="normal" in2="effect5_innerShadow_513_198" result="effect6_innerShadow_513_198"/>
<feColorMatrix in="SourceAlpha" type="matrix" values="0 0 0 0 0 0 0 0 0 0 0 0 0 0 0 0 0 0 127 0" result="hardAlpha"/>
<feOffset dy="10"/>
<feGaussianBlur stdDeviation="25"/>
<feComposite in2="hardAlpha" operator="arithmetic" k2="-1" k3="1"/>
<feColorMatrix type="matrix" values="0 0 0 0 0.376471 0 0 0 0 0.266667 0 0 0 0 0.564706 0 0 0 0.3 0"/>
<feBlend mode="normal" in2="effect6_innerShadow_513_198" result="effect7_innerShadow_513_198"/>
</filter>
</defs>
</svg>
