<svg width="452" height="595" viewBox="0 0 452 595" fill="none" xmlns="http://www.w3.org/2000/svg">
<g filter="url(#filter0_biiiiii_513_195)">
<path d="M22.2321 0.466295C15.437 1.72465 7.88682 6.75807 4.11176 12.0432C1.0917 16.3216 0.336695 18.3349 0.0850239 25.8851C-0.166647 32.1769 0.0850199 36.2036 1.59505 39.727C3.10507 43.5021 19.967 61.119 84.1432 125.547L164.93 206.333L136.5 281.5L91 385L164.93 387.536V406.16H112.834C76.8447 406.16 59.2277 406.663 56.2077 407.67C46.8958 410.439 38.5907 420.254 36.829 430.824C34.564 444.666 44.1275 458.004 59.2277 462.786C66.7779 465.051 69.2946 465.303 143.286 465.303H219.542L178.017 506.829C132.716 552.381 131.709 553.388 131.709 566.223C131.709 582.078 143.286 594.159 158.89 594.41C171.976 594.41 169.963 596.172 232.881 533.506L290.765 475.621V387.536H365.5L290.765 206.082L370.797 125.799C424.151 72.4442 451.08 44.5087 451.583 42.4954C452.086 40.7337 452.086 34.1902 451.835 28.1501C451.583 18.0833 451.08 16.5732 448.06 12.0432C439.754 0.466295 423.144 -3.56044 411.064 3.48635C407.289 5.75139 385.393 27.3951 346.133 67.9142L286.99 129.07H226.086H164.93L106.29 68.6692C74.0763 35.4486 46.3925 7.26142 45.1341 6.25473C38.8424 1.22131 30.0339 -1.04373 22.2321 0.466295ZM231.874 418.492V449.699L226.589 453.474C223.569 455.236 221.052 456.998 220.801 456.998C220.549 456.998 220.046 441.394 220.046 422.267V387.536H225.834H231.622L231.874 418.492Z" fill="#9C7BFF" fill-opacity="0.02"/>
<path d="M218.033 1.72488C204.694 4.24159 189.343 15.0634 181.289 27.647C163.924 55.0792 175.752 93.5848 205.449 106.42C232.882 117.997 264.341 105.917 277.679 78.4846C281.454 70.6828 282.209 67.9144 282.461 59.1059C282.964 47.7807 280.447 36.7072 275.162 28.1504C270.129 20.0969 260.062 11.0367 251.254 6.7583C239.425 0.969867 229.61 -0.540159 218.033 1.72488Z" fill="#9C7BFF" fill-opacity="0.02"/>
</g>
<defs>
<filter id="filter0_biiiiii_513_195" x="-100" y="-100" width="652" height="794.415" filterUnits="userSpaceOnUse" color-interpolation-filters="sRGB">
<feFlood flood-opacity="0" result="BackgroundImageFix"/>
<feGaussianBlur in="BackgroundImageFix" stdDeviation="50"/>
<feComposite in2="SourceAlpha" operator="in" result="effect1_backgroundBlur_513_195"/>
<feBlend mode="normal" in="SourceGraphic" in2="effect1_backgroundBlur_513_195" result="shape"/>
<feColorMatrix in="SourceAlpha" type="matrix" values="0 0 0 0 0 0 0 0 0 0 0 0 0 0 0 0 0 0 127 0" result="hardAlpha"/>
<feOffset dy="1"/>
<feGaussianBlur stdDeviation="20"/>
<feComposite in2="hardAlpha" operator="arithmetic" k2="-1" k3="1"/>
<feColorMatrix type="matrix" values="0 0 0 0 0.890196 0 0 0 0 0.929412 0 0 0 0 0.937255 0 0 0 0.2 0"/>
<feBlend mode="normal" in2="shape" result="effect2_innerShadow_513_195"/>
<feColorMatrix in="SourceAlpha" type="matrix" values="0 0 0 0 0 0 0 0 0 0 0 0 0 0 0 0 0 0 127 0" result="hardAlpha"/>
<feOffset dy="4"/>
<feGaussianBlur stdDeviation="9"/>
<feComposite in2="hardAlpha" operator="arithmetic" k2="-1" k3="1"/>
<feColorMatrix type="matrix" values="0 0 0 0 0.603922 0 0 0 0 0.572549 0 0 0 0 0.823529 0 0 0 0.3 0"/>
<feBlend mode="normal" in2="effect2_innerShadow_513_195" result="effect3_innerShadow_513_195"/>
<feColorMatrix in="SourceAlpha" type="matrix" values="0 0 0 0 0 0 0 0 0 0 0 0 0 0 0 0 0 0 127 0" result="hardAlpha"/>
<feOffset dy="98"/>
<feGaussianBlur stdDeviation="50"/>
<feComposite in2="hardAlpha" operator="arithmetic" k2="-1" k3="1"/>
<feColorMatrix type="matrix" values="0 0 0 0 0.792157 0 0 0 0 0.67451 0 0 0 0 1 0 0 0 0.3 0"/>
<feBlend mode="normal" in2="effect3_innerShadow_513_195" result="effect4_innerShadow_513_195"/>
<feColorMatrix in="SourceAlpha" type="matrix" values="0 0 0 0 0 0 0 0 0 0 0 0 0 0 0 0 0 0 127 0" result="hardAlpha"/>
<feOffset dy="-82"/>
<feGaussianBlur stdDeviation="34"/>
<feComposite in2="hardAlpha" operator="arithmetic" k2="-1" k3="1"/>
<feColorMatrix type="matrix" values="0 0 0 0 0.376471 0 0 0 0 0.266667 0 0 0 0 0.564706 0 0 0 0.3 0"/>
<feBlend mode="normal" in2="effect4_innerShadow_513_195" result="effect5_innerShadow_513_195"/>
<feColorMatrix in="SourceAlpha" type="matrix" values="0 0 0 0 0 0 0 0 0 0 0 0 0 0 0 0 0 0 127 0" result="hardAlpha"/>
<feOffset dy="7"/>
<feGaussianBlur stdDeviation="5.5"/>
<feComposite in2="hardAlpha" operator="arithmetic" k2="-1" k3="1"/>
<feColorMatrix type="matrix" values="0 0 0 0 1 0 0 0 0 1 0 0 0 0 1 0 0 0 1 0"/>
<feBlend mode="normal" in2="effect5_innerShadow_513_195" result="effect6_innerShadow_513_195"/>
<feColorMatrix in="SourceAlpha" type="matrix" values="0 0 0 0 0 0 0 0 0 0 0 0 0 0 0 0 0 0 127 0" result="hardAlpha"/>
<feOffset dy="10"/>
<feGaussianBlur stdDeviation="20"/>
<feComposite in2="hardAlpha" operator="arithmetic" k2="-1" k3="1"/>
<feColorMatrix type="matrix" values="0 0 0 0 1 0 0 0 0 1 0 0 0 0 1 0 0 0 0.5 0"/>
<feBlend mode="normal" in2="effect6_innerShadow_513_195" result="effect7_innerShadow_513_195"/>
</filter>
</defs>
</svg>
