<svg width="922" height="85" viewBox="0 0 922 85" fill="none" xmlns="http://www.w3.org/2000/svg">
<g filter="url(#filter0_biiiiii_513_182)">
<path d="M0.8125 3H11.9062L34.0938 40.3437H35.0313L57.2188 3H68.3125L39.4063 50.0313V83H29.7188V50.0313L0.8125 3ZM95.4805 84.25C90.0638 84.25 85.3112 82.9609 81.2227 80.3828C77.1602 77.8047 73.9831 74.1979 71.6914 69.5625C69.4258 64.9271 68.293 59.5104 68.293 53.3125C68.293 47.0625 69.4258 41.6068 71.6914 36.9453C73.9831 32.2839 77.1602 28.6641 81.2227 26.0859C85.3112 23.5078 90.0638 22.2188 95.4805 22.2188C100.897 22.2188 105.637 23.5078 109.699 26.0859C113.788 28.6641 116.965 32.2839 119.23 36.9453C121.522 41.6068 122.668 47.0625 122.668 53.3125C122.668 59.5104 121.522 64.9271 119.23 69.5625C116.965 74.1979 113.788 77.8047 109.699 80.3828C105.637 82.9609 100.897 84.25 95.4805 84.25ZM95.4805 75.9688C99.5951 75.9688 102.98 74.9141 105.637 72.8047C108.293 70.6953 110.259 67.9219 111.535 64.4844C112.811 61.0469 113.449 57.3229 113.449 53.3125C113.449 49.3021 112.811 45.5651 111.535 42.1016C110.259 38.638 108.293 35.8385 105.637 33.7031C102.98 31.5677 99.5951 30.5 95.4805 30.5C91.3659 30.5 87.9805 31.5677 85.3242 33.7031C82.668 35.8385 80.7018 38.638 79.4258 42.1016C78.1497 45.5651 77.5117 49.3021 77.5117 53.3125C77.5117 57.3229 78.1497 61.0469 79.4258 64.4844C80.7018 67.9219 82.668 70.6953 85.3242 72.8047C87.9805 74.9141 91.3659 75.9688 95.4805 75.9688ZM174.553 58.4687V23H183.771V83H174.553V72.8437H173.928C172.521 75.8906 170.334 78.4818 167.365 80.6172C164.396 82.7266 160.646 83.7813 156.115 83.7813C152.365 83.7813 149.032 82.9609 146.115 81.3203C143.199 79.6536 140.907 77.1536 139.24 73.8203C137.574 70.4609 136.74 66.2292 136.74 61.125V23H145.959V60.5C145.959 64.875 147.183 68.3646 149.631 70.9688C152.105 73.5729 155.256 74.875 159.084 74.875C161.376 74.875 163.706 74.2891 166.076 73.1172C168.472 71.9453 170.477 70.1484 172.092 67.7266C173.732 65.3047 174.553 62.2187 174.553 58.4687ZM249.25 84.4063C245.448 84.4063 241.997 83.6901 238.898 82.2578C235.799 80.7995 233.339 78.7031 231.516 75.9688C229.693 73.2083 228.781 69.875 228.781 65.9687C228.781 62.5312 229.458 59.7448 230.813 57.6094C232.167 55.4479 233.977 53.7552 236.242 52.5312C238.508 51.3073 241.008 50.3958 243.742 49.7969C246.503 49.1719 249.276 48.6771 252.063 48.3125C255.708 47.8437 258.664 47.4922 260.93 47.2578C263.221 46.9974 264.888 46.5677 265.93 45.9687C266.997 45.3698 267.531 44.3281 267.531 42.8437V42.5312C267.531 38.6771 266.477 35.6823 264.367 33.5469C262.284 31.4115 259.12 30.3437 254.875 30.3437C250.474 30.3437 247.023 31.3073 244.523 33.2344C242.023 35.1615 240.266 37.2187 239.25 39.4062L230.5 36.2812C232.063 32.6354 234.146 29.7969 236.75 27.7656C239.38 25.7083 242.245 24.276 245.344 23.4687C248.469 22.6354 251.542 22.2188 254.563 22.2188C256.49 22.2188 258.703 22.4531 261.203 22.9219C263.729 23.3646 266.164 24.2891 268.508 25.6953C270.878 27.1016 272.844 29.224 274.406 32.0625C275.969 34.901 276.75 38.7031 276.75 43.4688V83H267.531V74.875H267.063C266.438 76.1771 265.396 77.5703 263.938 79.0547C262.479 80.5391 260.539 81.8021 258.117 82.8437C255.695 83.8854 252.74 84.4063 249.25 84.4063ZM250.656 76.125C254.302 76.125 257.375 75.4089 259.875 73.9766C262.401 72.5443 264.302 70.6953 265.578 68.4297C266.88 66.1641 267.531 63.7812 267.531 61.2812V52.8437C267.141 53.3125 266.281 53.7422 264.953 54.1328C263.651 54.4974 262.141 54.8229 260.422 55.1094C258.729 55.3698 257.076 55.6042 255.461 55.8125C253.872 55.9948 252.583 56.151 251.594 56.2812C249.198 56.5937 246.958 57.1016 244.875 57.8047C242.818 58.4818 241.151 59.5104 239.875 60.8906C238.625 62.2448 238 64.0937 238 66.4375C238 69.6406 239.185 72.0625 241.555 73.7031C243.951 75.3177 246.984 76.125 250.656 76.125ZM293.576 83V23H302.482V32.0625H303.107C304.201 29.0938 306.18 26.6849 309.045 24.8359C311.91 22.987 315.139 22.0625 318.732 22.0625C319.41 22.0625 320.256 22.0755 321.271 22.1016C322.287 22.1276 323.055 22.1667 323.576 22.2188V31.5937C323.264 31.5156 322.548 31.3984 321.428 31.2422C320.334 31.0599 319.175 30.9687 317.951 30.9687C315.035 30.9687 312.43 31.5807 310.139 32.8047C307.873 34.0026 306.076 35.6693 304.748 37.8047C303.446 39.9141 302.795 42.3229 302.795 45.0312V83H293.576ZM357.834 84.25C352.053 84.25 347.066 82.974 342.873 80.4219C338.706 77.8438 335.49 74.25 333.225 69.6406C330.985 65.0052 329.865 59.6146 329.865 53.4688C329.865 47.3229 330.985 41.9062 333.225 37.2187C335.49 32.5052 338.641 28.8333 342.678 26.2031C346.74 23.5469 351.48 22.2188 356.896 22.2188C360.021 22.2188 363.107 22.7396 366.154 23.7812C369.201 24.8229 371.975 26.5156 374.475 28.8594C376.975 31.1771 378.967 34.25 380.451 38.0781C381.936 41.9062 382.678 46.6198 382.678 52.2187V56.125H336.428V48.1562H373.303C373.303 44.7708 372.626 41.75 371.271 39.0937C369.943 36.4375 368.042 34.3411 365.568 32.8047C363.12 31.2682 360.23 30.5 356.896 30.5C353.225 30.5 350.048 31.4115 347.365 33.2344C344.709 35.0312 342.665 37.375 341.232 40.2656C339.8 43.1562 339.084 46.2552 339.084 49.5625V54.875C339.084 59.4063 339.865 63.2474 341.428 66.3984C343.016 69.5234 345.217 71.9062 348.029 73.5469C350.842 75.1615 354.11 75.9688 357.834 75.9688C360.256 75.9688 362.443 75.6302 364.396 74.9531C366.376 74.25 368.081 73.2083 369.514 71.8281C370.946 70.4219 372.053 68.6771 372.834 66.5937L381.74 69.0938C380.803 72.1146 379.227 74.7708 377.014 77.0625C374.8 79.3281 372.066 81.099 368.811 82.375C365.555 83.625 361.896 84.25 357.834 84.25ZM427.639 83V23H436.857V83H427.639ZM432.326 13C430.529 13 428.98 12.388 427.678 11.1641C426.402 9.9401 425.764 8.46875 425.764 6.75C425.764 5.03125 426.402 3.5599 427.678 2.33593C428.98 1.11198 430.529 0.5 432.326 0.5C434.123 0.5 435.66 1.11198 436.936 2.33593C438.238 3.5599 438.889 5.03125 438.889 6.75C438.889 8.46875 438.238 9.9401 436.936 11.1641C435.66 12.388 434.123 13 432.326 13ZM462.961 46.9062V83H453.742V23H462.648V32.375H463.43C464.836 29.3281 466.971 26.8802 469.836 25.0313C472.701 23.1563 476.398 22.2188 480.93 22.2188C484.992 22.2188 488.547 23.0521 491.594 24.7187C494.641 26.3594 497.01 28.8594 498.703 32.2187C500.396 35.5521 501.242 39.7708 501.242 44.875V83H492.023V45.5C492.023 40.7865 490.799 37.1146 488.352 34.4844C485.904 31.8281 482.544 30.5 478.273 30.5C475.331 30.5 472.701 31.138 470.383 32.4141C468.091 33.6901 466.281 35.5521 464.953 38C463.625 40.4479 462.961 43.4167 462.961 46.9062ZM542.463 84.25C536.838 84.25 531.994 82.9219 527.932 80.2656C523.869 77.6094 520.744 73.9505 518.557 69.2891C516.369 64.6276 515.275 59.3021 515.275 53.3125C515.275 47.2187 516.395 41.8411 518.635 37.1797C520.9 32.4922 524.051 28.8333 528.088 26.2031C532.15 23.5469 536.89 22.2188 542.307 22.2188C546.525 22.2188 550.327 23 553.713 24.5625C557.098 26.125 559.872 28.3125 562.033 31.125C564.195 33.9375 565.536 37.2187 566.057 40.9687H556.838C556.135 38.2344 554.572 35.8125 552.15 33.7031C549.755 31.5677 546.525 30.5 542.463 30.5C538.869 30.5 535.718 31.4375 533.01 33.3125C530.327 35.1615 528.231 37.7786 526.721 41.1641C525.236 44.5234 524.494 48.4687 524.494 53C524.494 57.6354 525.223 61.6719 526.682 65.1094C528.166 68.5469 530.249 71.2161 532.932 73.1172C535.64 75.0182 538.817 75.9688 542.463 75.9688C544.859 75.9688 547.033 75.5521 548.986 74.7187C550.939 73.8854 552.593 72.6875 553.947 71.125C555.301 69.5625 556.265 67.6875 556.838 65.5H566.057C565.536 69.0417 564.247 72.2318 562.189 75.0703C560.158 77.8828 557.463 80.1224 554.104 81.7891C550.77 83.4297 546.89 84.25 542.463 84.25ZM579.533 83V23H588.439V32.0625H589.064C590.158 29.0938 592.137 26.6849 595.002 24.8359C597.867 22.987 601.096 22.0625 604.689 22.0625C605.367 22.0625 606.213 22.0755 607.229 22.1016C608.244 22.1276 609.012 22.1667 609.533 22.2188V31.5937C609.221 31.5156 608.505 31.3984 607.385 31.2422C606.291 31.0599 605.132 30.9687 603.908 30.9687C600.992 30.9687 598.387 31.5807 596.096 32.8047C593.83 34.0026 592.033 35.6693 590.705 37.8047C589.403 39.9141 588.752 42.3229 588.752 45.0312V83H579.533ZM643.791 84.25C638.01 84.25 633.023 82.974 628.83 80.4219C624.663 77.8438 621.447 74.25 619.182 69.6406C616.942 65.0052 615.822 59.6146 615.822 53.4688C615.822 47.3229 616.942 41.9062 619.182 37.2187C621.447 32.5052 624.598 28.8333 628.635 26.2031C632.697 23.5469 637.437 22.2188 642.854 22.2188C645.979 22.2188 649.064 22.7396 652.111 23.7812C655.158 24.8229 657.932 26.5156 660.432 28.8594C662.932 31.1771 664.924 34.25 666.408 38.0781C667.893 41.9062 668.635 46.6198 668.635 52.2187V56.125H622.385V48.1562H659.26C659.26 44.7708 658.583 41.75 657.229 39.0937C655.9 36.4375 653.999 34.3411 651.525 32.8047C649.077 31.2682 646.187 30.5 642.854 30.5C639.182 30.5 636.005 31.4115 633.322 33.2344C630.666 35.0312 628.622 37.375 627.189 40.2656C625.757 43.1562 625.041 46.2552 625.041 49.5625V54.875C625.041 59.4063 625.822 63.2474 627.385 66.3984C628.973 69.5234 631.174 71.9062 633.986 73.5469C636.799 75.1615 640.067 75.9688 643.791 75.9688C646.213 75.9688 648.4 75.6302 650.354 74.9531C652.333 74.25 654.038 73.2083 655.471 71.8281C656.903 70.4219 658.01 68.6771 658.791 66.5937L667.697 69.0938C666.76 72.1146 665.184 74.7708 662.971 77.0625C660.757 79.3281 658.023 81.099 654.768 82.375C651.512 83.625 647.854 84.25 643.791 84.25ZM705.314 84.25C700.314 84.25 695.9 82.987 692.072 80.4609C688.244 77.9089 685.249 74.3151 683.088 69.6797C680.926 65.0182 679.846 59.5104 679.846 53.1563C679.846 46.8542 680.926 41.3854 683.088 36.75C685.249 32.1146 688.257 28.5339 692.111 26.0078C695.965 23.4818 700.419 22.2188 705.471 22.2188C709.377 22.2188 712.463 22.8698 714.729 24.1719C717.02 25.4479 718.765 26.9062 719.963 28.5469C721.187 30.1615 722.137 31.4896 722.814 32.5312H723.596V3H732.814V83H723.908V73.7812H722.814C722.137 74.875 721.174 76.2552 719.924 77.9219C718.674 79.5625 716.89 81.0339 714.572 82.3359C712.255 83.612 709.169 84.25 705.314 84.25ZM706.564 75.9688C710.262 75.9688 713.387 75.0052 715.939 73.0781C718.492 71.125 720.432 68.4297 721.76 64.9922C723.088 61.5286 723.752 57.5312 723.752 53C723.752 48.5208 723.101 44.6016 721.799 41.2422C720.497 37.8568 718.57 35.2266 716.018 33.3516C713.465 31.4505 710.314 30.5 706.564 30.5C702.658 30.5 699.403 31.5026 696.799 33.5078C694.221 35.487 692.281 38.1823 690.979 41.5937C689.702 44.9792 689.064 48.7812 689.064 53C689.064 57.2708 689.715 61.151 691.018 64.6406C692.346 68.1042 694.299 70.8646 696.877 72.9219C699.481 74.9531 702.71 75.9688 706.564 75.9688ZM750.979 83V23H760.197V83H750.979ZM755.666 13C753.869 13 752.32 12.388 751.018 11.1641C749.742 9.9401 749.104 8.46875 749.104 6.75C749.104 5.03125 749.742 3.5599 751.018 2.33593C752.32 1.11198 753.869 0.5 755.666 0.5C757.463 0.5 758.999 1.11198 760.275 2.33593C761.577 3.5599 762.229 5.03125 762.229 6.75C762.229 8.46875 761.577 9.9401 760.275 11.1641C758.999 12.388 757.463 13 755.666 13ZM778.332 83V3H787.551V32.5312H788.332C789.009 31.4896 789.947 30.1615 791.145 28.5469C792.368 26.9062 794.113 25.4479 796.379 24.1719C798.671 22.8698 801.77 22.2188 805.676 22.2188C810.728 22.2188 815.181 23.4818 819.035 26.0078C822.889 28.5339 825.897 32.1146 828.059 36.75C830.22 41.3854 831.301 46.8542 831.301 53.1563C831.301 59.5104 830.22 65.0182 828.059 69.6797C825.897 74.3151 822.902 77.9089 819.074 80.4609C815.246 82.987 810.832 84.25 805.832 84.25C801.978 84.25 798.892 83.612 796.574 82.3359C794.257 81.0339 792.473 79.5625 791.223 77.9219C789.973 76.2552 789.009 74.875 788.332 73.7812H787.238V83H778.332ZM787.395 53C787.395 57.5312 788.059 61.5286 789.387 64.9922C790.715 68.4297 792.655 71.125 795.207 73.0781C797.759 75.0052 800.884 75.9688 804.582 75.9688C808.436 75.9688 811.652 74.9531 814.23 72.9219C816.835 70.8646 818.788 68.1042 820.09 64.6406C821.418 61.151 822.082 57.2708 822.082 53C822.082 48.7812 821.431 44.9792 820.129 41.5937C818.853 38.1823 816.913 35.487 814.309 33.5078C811.73 31.5026 808.488 30.5 804.582 30.5C800.832 30.5 797.681 31.4505 795.129 33.3516C792.577 35.2266 790.65 37.8568 789.348 41.2422C788.046 44.6016 787.395 48.5208 787.395 53ZM854.621 3V83H845.402V3H854.621ZM896.662 84.25C890.881 84.25 885.894 82.974 881.701 80.4219C877.535 77.8438 874.318 74.25 872.053 69.6406C869.813 65.0052 868.693 59.6146 868.693 53.4688C868.693 47.3229 869.813 41.9062 872.053 37.2187C874.318 32.5052 877.469 28.8333 881.506 26.2031C885.568 23.5469 890.308 22.2188 895.725 22.2188C898.85 22.2188 901.936 22.7396 904.982 23.7812C908.029 24.8229 910.803 26.5156 913.303 28.8594C915.803 31.1771 917.795 34.25 919.279 38.0781C920.764 41.9062 921.506 46.6198 921.506 52.2187V56.125H875.256V48.1562H912.131C912.131 44.7708 911.454 41.75 910.1 39.0937C908.771 36.4375 906.87 34.3411 904.396 32.8047C901.949 31.2682 899.058 30.5 895.725 30.5C892.053 30.5 888.876 31.4115 886.193 33.2344C883.537 35.0312 881.493 37.375 880.061 40.2656C878.628 43.1562 877.912 46.2552 877.912 49.5625V54.875C877.912 59.4063 878.693 63.2474 880.256 66.3984C881.844 69.5234 884.045 71.9062 886.857 73.5469C889.67 75.1615 892.938 75.9688 896.662 75.9688C899.084 75.9688 901.271 75.6302 903.225 74.9531C905.204 74.25 906.91 73.2083 908.342 71.8281C909.774 70.4219 910.881 68.6771 911.662 66.5937L920.568 69.0938C919.631 72.1146 918.055 74.7708 915.842 77.0625C913.628 79.3281 910.894 81.099 907.639 82.375C904.383 83.625 900.725 84.25 896.662 84.25Z" fill="#FFC700"/>
</g>
<defs>
<filter id="filter0_biiiiii_513_182" x="-99.1875" y="-99.5" width="1120.69" height="283.906" filterUnits="userSpaceOnUse" color-interpolation-filters="sRGB">
<feFlood flood-opacity="0" result="BackgroundImageFix"/>
<feGaussianBlur in="BackgroundImageFix" stdDeviation="50"/>
<feComposite in2="SourceAlpha" operator="in" result="effect1_backgroundBlur_513_182"/>
<feBlend mode="normal" in="SourceGraphic" in2="effect1_backgroundBlur_513_182" result="shape"/>
<feColorMatrix in="SourceAlpha" type="matrix" values="0 0 0 0 0 0 0 0 0 0 0 0 0 0 0 0 0 0 127 0" result="hardAlpha"/>
<feOffset dy="1"/>
<feGaussianBlur stdDeviation="20"/>
<feComposite in2="hardAlpha" operator="arithmetic" k2="-1" k3="1"/>
<feColorMatrix type="matrix" values="0 0 0 0 0.890196 0 0 0 0 0.929412 0 0 0 0 0.937255 0 0 0 0.2 0"/>
<feBlend mode="normal" in2="shape" result="effect2_innerShadow_513_182"/>
<feColorMatrix in="SourceAlpha" type="matrix" values="0 0 0 0 0 0 0 0 0 0 0 0 0 0 0 0 0 0 127 0" result="hardAlpha"/>
<feOffset dy="4"/>
<feGaussianBlur stdDeviation="9"/>
<feComposite in2="hardAlpha" operator="arithmetic" k2="-1" k3="1"/>
<feColorMatrix type="matrix" values="0 0 0 0 0.603922 0 0 0 0 0.572549 0 0 0 0 0.823529 0 0 0 0.3 0"/>
<feBlend mode="normal" in2="effect2_innerShadow_513_182" result="effect3_innerShadow_513_182"/>
<feColorMatrix in="SourceAlpha" type="matrix" values="0 0 0 0 0 0 0 0 0 0 0 0 0 0 0 0 0 0 127 0" result="hardAlpha"/>
<feOffset dy="98"/>
<feGaussianBlur stdDeviation="50"/>
<feComposite in2="hardAlpha" operator="arithmetic" k2="-1" k3="1"/>
<feColorMatrix type="matrix" values="0 0 0 0 0.792157 0 0 0 0 0.67451 0 0 0 0 1 0 0 0 0.3 0"/>
<feBlend mode="normal" in2="effect3_innerShadow_513_182" result="effect4_innerShadow_513_182"/>
<feColorMatrix in="SourceAlpha" type="matrix" values="0 0 0 0 0 0 0 0 0 0 0 0 0 0 0 0 0 0 127 0" result="hardAlpha"/>
<feOffset dy="-82"/>
<feGaussianBlur stdDeviation="34"/>
<feComposite in2="hardAlpha" operator="arithmetic" k2="-1" k3="1"/>
<feColorMatrix type="matrix" values="0 0 0 0 0.376471 0 0 0 0 0.266667 0 0 0 0 0.564706 0 0 0 0.3 0"/>
<feBlend mode="normal" in2="effect4_innerShadow_513_182" result="effect5_innerShadow_513_182"/>
<feColorMatrix in="SourceAlpha" type="matrix" values="0 0 0 0 0 0 0 0 0 0 0 0 0 0 0 0 0 0 127 0" result="hardAlpha"/>
<feOffset dy="7"/>
<feGaussianBlur stdDeviation="5.5"/>
<feComposite in2="hardAlpha" operator="arithmetic" k2="-1" k3="1"/>
<feColorMatrix type="matrix" values="0 0 0 0 1 0 0 0 0 1 0 0 0 0 1 0 0 0 1 0"/>
<feBlend mode="normal" in2="effect5_innerShadow_513_182" result="effect6_innerShadow_513_182"/>
<feColorMatrix in="SourceAlpha" type="matrix" values="0 0 0 0 0 0 0 0 0 0 0 0 0 0 0 0 0 0 127 0" result="hardAlpha"/>
<feOffset dy="10"/>
<feGaussianBlur stdDeviation="25"/>
<feComposite in2="hardAlpha" operator="arithmetic" k2="-1" k3="1"/>
<feColorMatrix type="matrix" values="0 0 0 0 1 0 0 0 0 0.78 0 0 0 0 0 0 0 0 0.5 0"/>
<feBlend mode="normal" in2="effect6_innerShadow_513_182" result="effect7_innerShadow_513_182"/>
</filter>
</defs>
</svg>
