<svg width="400" height="200
" viewBox="0 0 534 719" fill="none" xmlns="http://www.w3.org/2000/svg">
    <g filter="url(#filter0_biiiiii_498_231)">
        <path
            d="M62.3253 121.976C55.5017 123.239 47.9199 128.294 44.129 133.601C41.0963 137.897 40.3381 139.919 40.0854 147.501C39.8327 153.819 40.0854 157.863 41.6017 161.401C43.1181 165.192 60.0508 182.883 124.496 247.581L205.621 328.706L177.072 404.188L131.382 508.122L205.621 510.669V529.371H153.307C117.167 529.371 99.4761 529.876 96.4434 530.887C87.0925 533.667 78.7525 543.523 76.9834 554.138C74.7089 568.038 84.3125 581.432 99.4761 586.234C107.058 588.509 109.585 588.761 183.887 588.761H260.463L218.763 630.461C173.272 676.205 172.261 677.216 172.261 690.105C172.261 706.026 183.887 718.157 199.556 718.41C212.698 718.41 210.676 720.179 273.857 657.25L331.984 599.123V510.669H407.033L331.984 328.453L412.352 247.833C465.93 194.255 492.971 166.203 493.477 164.181C493.982 162.412 493.982 155.841 493.729 149.775C493.477 139.666 492.971 138.15 489.939 133.601C481.599 121.976 464.919 117.932 452.788 125.008C448.997 127.283 427.01 149.017 387.584 189.706L328.194 251.119H267.034H205.621L146.736 190.464C114.387 157.105 86.587 128.799 85.3234 127.788C79.0053 122.734 70.1598 120.459 62.3253 121.976ZM272.846 541.754V573.092L267.539 576.883C264.507 578.652 261.979 580.421 261.727 580.421C261.474 580.421 260.968 564.752 260.968 545.545V510.669H266.781H272.594L272.846 541.754Z"
            fill="#9C7BFF" fill-opacity="0.02" />
        <path
            d="M258.947 123.239C245.553 125.767 230.136 136.634 222.049 149.27C204.611 176.817 216.489 215.484 246.311 228.373C273.858 239.999 305.449 227.868 318.843 200.321C322.634 192.486 323.392 189.706 323.645 180.861C324.15 169.488 321.623 158.368 316.316 149.776C311.261 141.688 301.152 132.59 292.307 128.294C280.429 122.481 270.572 120.965 258.947 123.239Z"
            fill="#9C7BFF" fill-opacity="0.02" />
    </g>
    <path
        d="M67.3295 47H58.5227C58.0019 44.4669 57.0904 42.2415 55.7884 40.3239C54.5099 38.4062 52.9474 36.7964 51.1009 35.4943C49.2779 34.1686 47.2538 33.1742 45.0284 32.5114C42.803 31.8485 40.483 31.517 38.0682 31.517C33.6648 31.517 29.6757 32.6297 26.1009 34.8551C22.5497 37.0805 19.7206 40.3594 17.6136 44.6918C15.5303 49.0241 14.4886 54.339 14.4886 60.6364C14.4886 66.9337 15.5303 72.2486 17.6136 76.581C19.7206 80.9134 22.5497 84.1922 26.1009 86.4176C29.6757 88.643 33.6648 89.7557 38.0682 89.7557C40.483 89.7557 42.803 89.4242 45.0284 88.7614C47.2538 88.0985 49.2779 87.116 51.1009 85.8139C52.9474 84.4882 54.5099 82.8665 55.7884 80.9489C57.0904 79.0076 58.0019 76.7822 58.5227 74.2727H67.3295C66.6667 77.9896 65.4593 81.3158 63.7074 84.2514C61.9555 87.187 59.7775 89.6847 57.1733 91.7443C54.5691 93.7803 51.6454 95.331 48.402 96.3963C45.1823 97.4616 41.7377 97.9943 38.0682 97.9943C31.8655 97.9943 26.3494 96.4792 21.5199 93.4489C16.6903 90.4186 12.8906 86.1098 10.1207 80.5227C7.35085 74.9356 5.96591 68.3068 5.96591 60.6364C5.96591 52.9659 7.35085 46.3371 10.1207 40.75C12.8906 35.1629 16.6903 30.8542 21.5199 27.8239C26.3494 24.7936 31.8655 23.2784 38.0682 23.2784C41.7377 23.2784 45.1823 23.8111 48.402 24.8764C51.6454 25.9418 54.5691 27.5043 57.1733 29.5639C59.7775 31.5999 61.9555 34.0857 63.7074 37.0213C65.4593 39.9332 66.6667 43.2595 67.3295 47ZM102.583 98.1364C97.6592 98.1364 93.3387 96.9645 89.6218 94.6207C85.9286 92.277 83.0404 88.9981 80.957 84.7841C78.8974 80.5701 77.8675 75.6458 77.8675 70.0114C77.8675 64.3295 78.8974 59.3698 80.957 55.1321C83.0404 50.8944 85.9286 47.6037 89.6218 45.2599C93.3387 42.9162 97.6592 41.7443 102.583 41.7443C107.508 41.7443 111.816 42.9162 115.51 45.2599C119.226 47.6037 122.115 50.8944 124.174 55.1321C126.258 59.3698 127.299 64.3295 127.299 70.0114C127.299 75.6458 126.258 80.5701 124.174 84.7841C122.115 88.9981 119.226 92.277 115.51 94.6207C111.816 96.9645 107.508 98.1364 102.583 98.1364ZM102.583 90.608C106.324 90.608 109.402 89.6491 111.816 87.7315C114.231 85.8139 116.019 83.2926 117.179 80.1676C118.339 77.0426 118.919 73.6572 118.919 70.0114C118.919 66.3655 118.339 62.9683 117.179 59.8196C116.019 56.6709 114.231 54.1259 111.816 52.1847C109.402 50.2434 106.324 49.2727 102.583 49.2727C98.8429 49.2727 95.7653 50.2434 93.3505 52.1847C90.9357 54.1259 89.1483 56.6709 87.9883 59.8196C86.8282 62.9683 86.2482 66.3655 86.2482 70.0114C86.2482 73.6572 86.8282 77.0426 87.9883 80.1676C89.1483 83.2926 90.9357 85.8139 93.3505 87.7315C95.7653 89.6491 98.8429 90.608 102.583 90.608ZM148.473 64.1875V97H140.092V42.4545H148.189V50.9773H148.899C150.178 48.2074 152.119 45.982 154.723 44.3011C157.327 42.5966 160.689 41.7443 164.808 41.7443C168.501 41.7443 171.733 42.5019 174.503 44.017C177.273 45.5085 179.427 47.7812 180.966 50.8352C182.505 53.8655 183.274 57.7008 183.274 62.3409V97H174.893V62.9091C174.893 58.6241 173.781 55.286 171.555 52.8949C169.33 50.4801 166.276 49.2727 162.393 49.2727C159.718 49.2727 157.327 49.8527 155.22 51.0128C153.137 52.1728 151.491 53.8655 150.284 56.0909C149.077 58.3163 148.473 61.0152 148.473 64.1875ZM222.31 42.4545V49.5568H194.043V42.4545H222.31ZM202.282 29.3864H210.662V81.375C210.662 83.7424 211.006 85.518 211.692 86.7017C212.402 87.8617 213.302 88.643 214.391 89.0455C215.504 89.4242 216.676 89.6136 217.907 89.6136C218.83 89.6136 219.587 89.5663 220.179 89.4716C220.771 89.3532 221.245 89.2585 221.6 89.1875L223.304 96.7159C222.736 96.929 221.943 97.142 220.925 97.3551C219.907 97.5919 218.617 97.7102 217.054 97.7102C214.687 97.7102 212.367 97.2012 210.094 96.1832C207.845 95.1652 205.975 93.6146 204.483 91.5312C203.016 89.4479 202.282 86.8201 202.282 83.6477V29.3864ZM250.968 98.2784C247.511 98.2784 244.374 97.6274 241.557 96.3253C238.74 94.9995 236.503 93.0938 234.846 90.608C233.188 88.0985 232.36 85.0682 232.36 81.517C232.36 78.392 232.975 75.8589 234.206 73.9176C235.437 71.9527 237.083 70.4138 239.142 69.3011C241.202 68.1884 243.475 67.3598 245.961 66.8153C248.47 66.2472 250.991 65.7973 253.525 65.4659C256.839 65.0398 259.526 64.7202 261.586 64.5071C263.669 64.2704 265.184 63.8797 266.131 63.3352C267.102 62.7907 267.587 61.8437 267.587 60.4943V60.2102C267.587 56.7064 266.628 53.9839 264.711 52.0426C262.817 50.1013 259.94 49.1307 256.081 49.1307C252.08 49.1307 248.944 50.0066 246.671 51.7585C244.398 53.5104 242.8 55.3807 241.877 57.3693L233.922 54.5284C235.343 51.214 237.237 48.6335 239.604 46.7869C241.995 44.9167 244.599 43.6146 247.417 42.8807C250.257 42.1231 253.051 41.7443 255.797 41.7443C257.549 41.7443 259.561 41.9574 261.834 42.3835C264.131 42.786 266.344 43.6264 268.475 44.9048C270.629 46.1832 272.417 48.1127 273.837 50.6932C275.257 53.2737 275.968 56.7301 275.968 61.0625V97H267.587V89.6136H267.161C266.593 90.7973 265.646 92.0639 264.32 93.4134C262.994 94.7628 261.23 95.911 259.029 96.858C256.827 97.8049 254.14 98.2784 250.968 98.2784ZM252.246 90.75C255.56 90.75 258.354 90.099 260.627 88.7969C262.923 87.4948 264.651 85.8139 265.811 83.7543C266.995 81.6946 267.587 79.5284 267.587 77.2557V69.5852C267.232 70.0114 266.451 70.402 265.243 70.7571C264.06 71.0885 262.686 71.3845 261.124 71.6449C259.585 71.8816 258.082 72.0947 256.614 72.2841C255.17 72.4498 253.998 72.5919 253.098 72.7102C250.92 72.9943 248.884 73.456 246.99 74.0952C245.12 74.7107 243.605 75.6458 242.445 76.9006C241.309 78.1316 240.74 79.8125 240.74 81.9432C240.74 84.8551 241.818 87.0568 243.972 88.5483C246.15 90.0161 248.908 90.75 252.246 90.75ZM313.423 98.1364C308.31 98.1364 303.906 96.929 300.213 94.5142C296.52 92.0994 293.679 88.7732 291.69 84.5355C289.702 80.2978 288.707 75.4564 288.707 70.0114C288.707 64.4716 289.725 59.5829 291.761 55.3452C293.821 51.0838 296.686 47.7576 300.355 45.3665C304.048 42.9517 308.357 41.7443 313.281 41.7443C317.116 41.7443 320.573 42.4545 323.651 43.875C326.728 45.2955 329.25 47.2841 331.214 49.8409C333.179 52.3977 334.399 55.3807 334.872 58.7898H326.491C325.852 56.304 324.432 54.1023 322.23 52.1847C320.052 50.2434 317.116 49.2727 313.423 49.2727C310.156 49.2727 307.292 50.125 304.83 51.8295C302.391 53.5104 300.485 55.8897 299.112 58.9673C297.763 62.0213 297.088 65.608 297.088 69.7273C297.088 73.9413 297.751 77.6108 299.077 80.7358C300.426 83.8608 302.32 86.2874 304.759 88.0156C307.221 89.7438 310.109 90.608 313.423 90.608C315.601 90.608 317.578 90.2292 319.354 89.4716C321.129 88.714 322.633 87.625 323.864 86.2045C325.095 84.7841 325.971 83.0795 326.491 81.0909H334.872C334.399 84.3106 333.227 87.2107 331.357 89.7912C329.51 92.348 327.06 94.384 324.006 95.8991C320.975 97.3906 317.448 98.1364 313.423 98.1364ZM370.845 42.4545V49.5568H342.578V42.4545H370.845ZM350.817 29.3864H359.197V81.375C359.197 83.7424 359.541 85.518 360.227 86.7017C360.938 87.8617 361.837 88.643 362.926 89.0455C364.039 89.4242 365.211 89.6136 366.442 89.6136C367.365 89.6136 368.123 89.5663 368.714 89.4716C369.306 89.3532 369.78 89.2585 370.135 89.1875L371.839 96.7159C371.271 96.929 370.478 97.142 369.46 97.3551C368.442 97.5919 367.152 97.7102 365.589 97.7102C363.222 97.7102 360.902 97.2012 358.629 96.1832C356.38 95.1652 354.51 93.6146 353.018 91.5312C351.551 89.4479 350.817 86.8201 350.817 83.6477V29.3864ZM460.44 24.2727H469.247V72.4261C469.247 77.3977 468.075 81.8366 465.732 85.7429C463.411 89.6255 460.133 92.6913 455.895 94.9403C451.657 97.1657 446.686 98.2784 440.98 98.2784C435.275 98.2784 430.303 97.1657 426.065 94.9403C421.828 92.6913 418.537 89.6255 416.193 85.7429C413.873 81.8366 412.713 77.3977 412.713 72.4261V24.2727H421.52V71.7159C421.52 75.267 422.301 78.4276 423.864 81.1974C425.426 83.9437 427.652 86.1098 430.54 87.696C433.452 89.2585 436.932 90.0398 440.98 90.0398C445.028 90.0398 448.509 89.2585 451.42 87.696C454.332 86.1098 456.558 83.9437 458.097 81.1974C459.659 78.4276 460.44 75.267 460.44 71.7159V24.2727ZM524.334 54.6705L516.806 56.8011C516.332 55.5464 515.634 54.3272 514.711 53.1435C513.811 51.9361 512.58 50.9418 511.017 50.1605C509.455 49.3793 507.454 48.9886 505.016 48.9886C501.678 48.9886 498.896 49.758 496.671 51.2969C494.469 52.812 493.368 54.7415 493.368 57.0852C493.368 59.1686 494.126 60.8139 495.641 62.0213C497.156 63.2287 499.524 64.2348 502.743 65.0398L510.84 67.0284C515.717 68.2121 519.351 70.0232 521.742 72.4616C524.133 74.8764 525.328 77.9896 525.328 81.8011C525.328 84.9261 524.429 87.7197 522.63 90.1818C520.854 92.6439 518.368 94.5852 515.172 96.0057C511.976 97.4261 508.259 98.1364 504.022 98.1364C498.458 98.1364 493.854 96.929 490.208 94.5142C486.562 92.0994 484.254 88.572 483.283 83.9318L491.238 81.9432C491.995 84.8788 493.427 87.0805 495.534 88.5483C497.665 90.0161 500.447 90.75 503.88 90.75C507.786 90.75 510.887 89.9214 513.184 88.2642C515.504 86.5833 516.664 84.571 516.664 82.2273C516.664 80.3333 516.001 78.7472 514.675 77.4688C513.349 76.1667 511.313 75.196 508.567 74.5568L499.476 72.4261C494.481 71.2424 490.811 69.4077 488.468 66.9219C486.148 64.4124 484.988 61.2756 484.988 57.5114C484.988 54.4337 485.852 51.7112 487.58 49.3438C489.332 46.9763 491.711 45.1179 494.718 43.7685C497.748 42.419 501.181 41.7443 505.016 41.7443C510.414 41.7443 514.651 42.928 517.729 45.2955C520.83 47.6629 523.032 50.7879 524.334 54.6705Z"
        fill="#9C7BFF" />
    <path fill-rule="evenodd" clip-rule="evenodd"
        d="M292.024 491.597L283.136 335.432L264.986 495.691L311.865 346.005L238.131 490.595L335.123 365.442L214.697 476.924L350.103 391.399L197.511 456.327L355 420.746L188.647 431.288L349.222 449.942L189.173 404.828L333.467 475.466L199.025 380.136L309.635 494.241L217.016 360.193L280.6 504L240.976 347.403L249.864 503.568L268.014 343.309L221.135 492.995L294.869 348.405L197.877 473.558L318.303 362.076L182.897 447.601L335.489 382.673L178 418.254L344.353 407.712L183.778 389.058L343.827 434.172L199.533 363.534L333.975 458.864L223.365 344.759L315.984 478.807L252.4 335L292.024 491.597Z"
        stroke="#9C7BFF" stroke-width="0.377953" stroke-miterlimit="22.9256"
        stroke-dasharray="0.38 0.38" />
    <defs>
        <filter id="filter0_biiiiii_498_231" x="-60" y="21.5073" width="653.896" height="796.908"
            filterUnits="userSpaceOnUse" color-interpolation-filters="sRGB">
            <feFlood flood-opacity="0" result="BackgroundImageFix" />
            <feGaussianBlur in="BackgroundImageFix" stdDeviation="50" />
            <feComposite in2="SourceAlpha" operator="in" result="effect1_backgroundBlur_498_231" />
            <feBlend mode="normal" in="SourceGraphic" in2="effect1_backgroundBlur_498_231"
                result="shape" />
            <feColorMatrix in="SourceAlpha" type="matrix"
                values="0 0 0 0 0 0 0 0 0 0 0 0 0 0 0 0 0 0 127 0" result="hardAlpha" />
            <feOffset dy="1" />
            <feGaussianBlur stdDeviation="20" />
            <feComposite in2="hardAlpha" operator="arithmetic" k2="-1" k3="1" />
            <feColorMatrix type="matrix"
                values="0 0 0 0 0.890196 0 0 0 0 0.929412 0 0 0 0 0.937255 0 0 0 0.2 0" />
            <feBlend mode="normal" in2="shape" result="effect2_innerShadow_498_231" />
            <feColorMatrix in="SourceAlpha" type="matrix"
                values="0 0 0 0 0 0 0 0 0 0 0 0 0 0 0 0 0 0 127 0" result="hardAlpha" />
            <feOffset dy="4" />
            <feGaussianBlur stdDeviation="9" />
            <feComposite in2="hardAlpha" operator="arithmetic" k2="-1" k3="1" />
            <feColorMatrix type="matrix"
                values="0 0 0 0 0.603922 0 0 0 0 0.572549 0 0 0 0 0.823529 0 0 0 0.3 0" />
            <feBlend mode="normal" in2="effect2_innerShadow_498_231"
                result="effect3_innerShadow_498_231" />
            <feColorMatrix in="SourceAlpha" type="matrix"
                values="0 0 0 0 0 0 0 0 0 0 0 0 0 0 0 0 0 0 127 0" result="hardAlpha" />
            <feOffset dy="98" />
            <feGaussianBlur stdDeviation="50" />
            <feComposite in2="hardAlpha" operator="arithmetic" k2="-1" k3="1" />
            <feColorMatrix type="matrix"
                values="0 0 0 0 0.792157 0 0 0 0 0.67451 0 0 0 0 1 0 0 0 0.3 0" />
            <feBlend mode="normal" in2="effect3_innerShadow_498_231"
                result="effect4_innerShadow_498_231" />
            <feColorMatrix in="SourceAlpha" type="matrix"
                values="0 0 0 0 0 0 0 0 0 0 0 0 0 0 0 0 0 0 127 0" result="hardAlpha" />
            <feOffset dy="-82" />
            <feGaussianBlur stdDeviation="34" />
            <feComposite in2="hardAlpha" operator="arithmetic" k2="-1" k3="1" />
            <feColorMatrix type="matrix"
                values="0 0 0 0 0.376471 0 0 0 0 0.266667 0 0 0 0 0.564706 0 0 0 0.3 0" />
            <feBlend mode="normal" in2="effect4_innerShadow_498_231"
                result="effect5_innerShadow_498_231" />
            <feColorMatrix in="SourceAlpha" type="matrix"
                values="0 0 0 0 0 0 0 0 0 0 0 0 0 0 0 0 0 0 127 0" result="hardAlpha" />
            <feOffset dy="7" />
            <feGaussianBlur stdDeviation="5.5" />
            <feComposite in2="hardAlpha" operator="arithmetic" k2="-1" k3="1" />
            <feColorMatrix type="matrix" values="0 0 0 0 1 0 0 0 0 1 0 0 0 0 1 0 0 0 1 0" />
            <feBlend mode="normal" in2="effect5_innerShadow_498_231"
                result="effect6_innerShadow_498_231" />
            <feColorMatrix in="SourceAlpha" type="matrix"
                values="0 0 0 0 0 0 0 0 0 0 0 0 0 0 0 0 0 0 127 0" result="hardAlpha" />
            <feOffset dy="10" />
            <feGaussianBlur stdDeviation="20" />
            <feComposite in2="hardAlpha" operator="arithmetic" k2="-1" k3="1" />
            <feColorMatrix type="matrix" values="0 0 0 0 1 0 0 0 0 1 0 0 0 0 1 0 0 0 0.5 0" />
            <feBlend mode="normal" in2="effect6_innerShadow_498_231"
                result="effect7_innerShadow_498_231" />
        </filter>
    </defs>
</svg>