<svg width="252" height="291" viewBox="0 0 252 291" fill="none" xmlns="http://www.w3.org/2000/svg">
<g filter="url(#filter0_df_635_249)">
<path fill-rule="evenodd" clip-rule="evenodd" d="M195.087 157.942C193.322 159.811 190.875 160.88 188.308 160.905L66.2211 162.082C63.6359 162.107 61.1532 161.07 59.3504 159.213L53.6804 153.37C51.9165 151.553 49.4999 150.519 46.9704 150.5L13.5285 150.253C8.26976 150.215 3.98908 154.483 4.00002 159.755L4.22812 269.654C4.23894 274.869 8.44808 279.096 13.6499 279.117L238.504 280C243.748 280.021 248.007 275.761 248 270.505L247.845 159.756C247.838 154.558 243.657 150.334 238.472 150.287L206.742 150C204.114 149.977 201.594 151.05 199.787 152.964L195.087 157.942Z" fill="url(#paint0_linear_635_249)"/>
<path fill-rule="evenodd" clip-rule="evenodd" d="M196.668 162.034C194.872 164.148 192.242 165.367 189.472 165.369L65.4019 165.448C62.8191 165.45 60.3479 164.393 58.5622 162.522L53.8693 157.606C52.0839 155.736 49.6134 154.679 47.0312 154.68L16.7512 154.694C11.521 154.696 7.28546 158.954 7.29678 164.197L7.51628 265.833C7.52755 271.048 11.7374 275.275 16.9395 275.295L235.209 276.119C240.452 276.139 244.711 271.879 244.703 266.623L244.554 164.221C244.547 159.038 240.388 154.821 235.218 154.754L207.649 154.395C204.834 154.359 202.149 155.581 200.324 157.729L196.668 162.034Z" fill="url(#paint1_linear_635_249)"/>
</g>
<g filter="url(#filter1_biiiiii_635_249)">
<rect x="24" width="208" height="262" rx="30" fill="black" fill-opacity="0.01"/>
</g>
<g filter="url(#filter2_biiiiii_635_249)">
<rect x="58" y="44" width="79" height="15" rx="7.5" fill="black" fill-opacity="0.01"/>
</g>
<g filter="url(#filter3_biiiiii_635_249)">
<rect x="58" y="73" width="134" height="15" rx="7.5" fill="black" fill-opacity="0.01"/>
</g>
<g filter="url(#filter4_biiiiii_635_249)">
<rect x="58" y="100" width="136" height="15" rx="7.5" fill="black" fill-opacity="0.01"/>
</g>
<g filter="url(#filter5_df_635_249)">
<path fill-rule="evenodd" clip-rule="evenodd" d="M195.087 160.942C193.322 162.811 190.875 163.88 188.308 163.905L66.2211 165.082C63.6359 165.107 61.1532 164.07 59.3504 162.213L53.6804 156.37C51.9165 154.553 49.4999 153.519 46.9704 153.5L13.5285 153.253C8.26976 153.215 3.98908 157.483 4.00002 162.755L4.22812 272.654C4.23894 277.869 8.44808 282.096 13.6499 282.117L238.504 283C243.748 283.021 248.007 278.761 248 273.505L247.845 162.756C247.838 157.558 243.657 153.334 238.472 153.287L206.742 153C204.114 152.977 201.594 154.05 199.787 155.964L195.087 160.942Z" fill="url(#paint2_linear_635_249)"/>
<path fill-rule="evenodd" clip-rule="evenodd" d="M196.668 165.034C194.872 167.148 192.242 168.367 189.472 168.369L65.4019 168.448C62.8191 168.45 60.3479 167.393 58.5622 165.522L53.8693 160.606C52.0839 158.736 49.6134 157.679 47.0312 157.68L16.7512 157.694C11.521 157.696 7.28546 161.954 7.29678 167.197L7.51628 268.833C7.52755 274.048 11.7374 278.275 16.9395 278.295L235.209 279.119C240.452 279.139 244.711 274.879 244.703 269.623L244.554 167.221C244.547 162.038 240.388 157.821 235.218 157.754L207.649 157.395C204.834 157.359 202.149 158.581 200.324 160.729L196.668 165.034Z" fill="url(#paint3_linear_635_249)"/>
</g>
<g filter="url(#filter6_f_635_249)">
<path d="M37 202.013C37 180.482 54.454 163.027 75.9847 163.027H177.015C198.546 163.027 216 180.482 216 202.013C216 223.545 198.546 241 177.015 241H75.9847C54.454 241 37 223.545 37 202.013Z" fill="#2B61EB"/>
<path d="M177.015 163.027C177.015 156.256 176.203 155.045 173.562 148.811C170.921 142.577 167.054 136.937 162.19 132.227C157.327 127.517 151.566 123.833 145.25 121.393C138.934 118.954 132.193 117.809 125.426 118.026C118.659 118.244 112.005 119.819 105.859 122.659C99.7132 125.5 94.2008 129.546 89.6497 134.559C85.0985 139.572 81.6014 145.448 79.3662 151.839C77.0828 158.085 78.181 158.634 77.6319 163.027H127.598H177.015Z" fill="#2B61EB"/>
</g>
<path d="M35.8311 201.585C35.8311 181.103 52.9926 164.5 74.1623 164.5L176.5 166C197.67 166 211.831 181.103 211.831 201.585C211.831 222.066 194.67 238.67 173.5 238.67H74.1623C52.9926 238.67 35.8311 222.066 35.8311 201.585Z" fill="#6D50A2"/>
<path d="M176.5 166C176.5 159.56 174.87 156.238 172.273 150.308C169.677 144.378 165.874 139.013 161.092 134.533C156.31 130.053 150.645 126.548 144.436 124.228C138.226 121.907 131.597 120.818 124.944 121.025C118.29 121.232 111.748 122.731 105.705 125.432C99.6618 128.134 94.2419 131.983 89.767 136.751C85.2922 141.52 81.8537 147.109 79.6559 153.189C77.4108 159.129 77.0399 163.821 76.5 168H126L176.5 166Z" fill="#6D50A2"/>
<path d="M124.609 175.737C125.227 174.754 126.773 174.754 127.391 175.737L158.78 225.653C159.502 226.803 158.332 228.175 156.943 227.807L126.445 219.724C126.154 219.647 125.845 219.647 125.554 219.724L95.0568 227.807C93.6677 228.175 92.4976 226.803 93.2205 225.653L124.609 175.737Z" fill="url(#paint4_linear_635_249)"/>
<path d="M109.697 219.237C109.697 218.423 110.417 217.763 111.304 217.763H141.016C141.903 217.763 142.622 218.423 142.622 219.237V260.525C142.622 261.34 141.903 262 141.016 262H111.304C110.417 262 109.697 261.34 109.697 260.525V219.237Z" fill="url(#paint5_linear_635_249)"/>
<path d="M124.924 180.086C125.473 179.203 126.846 179.203 127.395 180.086L155.274 224.926C155.916 225.958 154.877 227.191 153.643 226.861L126.555 219.6C126.296 219.53 126.022 219.53 125.763 219.6L98.6758 226.861C97.442 227.191 96.4026 225.958 97.0447 224.926L124.924 180.086Z" fill="white"/>
<path d="M110.5 219.162C110.5 218.431 113.318 217.838 114.106 217.838H140.496C141.284 217.838 141.923 218.431 141.923 219.162V259.252C141.923 259.983 141.284 260.576 140.496 260.576H114.106C113.318 260.576 110.5 259.983 110.5 259.252V219.162Z" fill="white"/>
<defs>
<filter id="filter0_df_635_249" x="0" y="149" width="252" height="139" filterUnits="userSpaceOnUse" color-interpolation-filters="sRGB">
<feFlood flood-opacity="0" result="BackgroundImageFix"/>
<feColorMatrix in="SourceAlpha" type="matrix" values="0 0 0 0 0 0 0 0 0 0 0 0 0 0 0 0 0 0 127 0" result="hardAlpha"/>
<feOffset dy="4"/>
<feGaussianBlur stdDeviation="2"/>
<feComposite in2="hardAlpha" operator="out"/>
<feColorMatrix type="matrix" values="0 0 0 0 0 0 0 0 0 0 0 0 0 0 0 0 0 0 0.25 0"/>
<feBlend mode="normal" in2="BackgroundImageFix" result="effect1_dropShadow_635_249"/>
<feBlend mode="normal" in="SourceGraphic" in2="effect1_dropShadow_635_249" result="shape"/>
<feGaussianBlur stdDeviation="0.5" result="effect2_foregroundBlur_635_249"/>
</filter>
<filter id="filter1_biiiiii_635_249" x="-76" y="-100" width="408" height="462" filterUnits="userSpaceOnUse" color-interpolation-filters="sRGB">
<feFlood flood-opacity="0" result="BackgroundImageFix"/>
<feGaussianBlur in="BackgroundImageFix" stdDeviation="50"/>
<feComposite in2="SourceAlpha" operator="in" result="effect1_backgroundBlur_635_249"/>
<feBlend mode="normal" in="SourceGraphic" in2="effect1_backgroundBlur_635_249" result="shape"/>
<feColorMatrix in="SourceAlpha" type="matrix" values="0 0 0 0 0 0 0 0 0 0 0 0 0 0 0 0 0 0 127 0" result="hardAlpha"/>
<feOffset dy="1"/>
<feGaussianBlur stdDeviation="20"/>
<feComposite in2="hardAlpha" operator="arithmetic" k2="-1" k3="1"/>
<feColorMatrix type="matrix" values="0 0 0 0 0.890196 0 0 0 0 0.929412 0 0 0 0 0.937255 0 0 0 0.2 0"/>
<feBlend mode="normal" in2="shape" result="effect2_innerShadow_635_249"/>
<feColorMatrix in="SourceAlpha" type="matrix" values="0 0 0 0 0 0 0 0 0 0 0 0 0 0 0 0 0 0 127 0" result="hardAlpha"/>
<feOffset dy="4"/>
<feGaussianBlur stdDeviation="9"/>
<feComposite in2="hardAlpha" operator="arithmetic" k2="-1" k3="1"/>
<feColorMatrix type="matrix" values="0 0 0 0 0.603922 0 0 0 0 0.572549 0 0 0 0 0.823529 0 0 0 0.3 0"/>
<feBlend mode="normal" in2="effect2_innerShadow_635_249" result="effect3_innerShadow_635_249"/>
<feColorMatrix in="SourceAlpha" type="matrix" values="0 0 0 0 0 0 0 0 0 0 0 0 0 0 0 0 0 0 127 0" result="hardAlpha"/>
<feOffset dy="98"/>
<feGaussianBlur stdDeviation="50"/>
<feComposite in2="hardAlpha" operator="arithmetic" k2="-1" k3="1"/>
<feColorMatrix type="matrix" values="0 0 0 0 0.792157 0 0 0 0 0.67451 0 0 0 0 1 0 0 0 0.3 0"/>
<feBlend mode="normal" in2="effect3_innerShadow_635_249" result="effect4_innerShadow_635_249"/>
<feColorMatrix in="SourceAlpha" type="matrix" values="0 0 0 0 0 0 0 0 0 0 0 0 0 0 0 0 0 0 127 0" result="hardAlpha"/>
<feOffset dy="-82"/>
<feGaussianBlur stdDeviation="34"/>
<feComposite in2="hardAlpha" operator="arithmetic" k2="-1" k3="1"/>
<feColorMatrix type="matrix" values="0 0 0 0 0.376471 0 0 0 0 0.266667 0 0 0 0 0.564706 0 0 0 0.3 0"/>
<feBlend mode="normal" in2="effect4_innerShadow_635_249" result="effect5_innerShadow_635_249"/>
<feColorMatrix in="SourceAlpha" type="matrix" values="0 0 0 0 0 0 0 0 0 0 0 0 0 0 0 0 0 0 127 0" result="hardAlpha"/>
<feOffset dy="7"/>
<feGaussianBlur stdDeviation="5.5"/>
<feComposite in2="hardAlpha" operator="arithmetic" k2="-1" k3="1"/>
<feColorMatrix type="matrix" values="0 0 0 0 1 0 0 0 0 1 0 0 0 0 1 0 0 0 1 0"/>
<feBlend mode="normal" in2="effect5_innerShadow_635_249" result="effect6_innerShadow_635_249"/>
<feColorMatrix in="SourceAlpha" type="matrix" values="0 0 0 0 0 0 0 0 0 0 0 0 0 0 0 0 0 0 127 0" result="hardAlpha"/>
<feOffset dy="39"/>
<feGaussianBlur stdDeviation="28"/>
<feComposite in2="hardAlpha" operator="arithmetic" k2="-1" k3="1"/>
<feColorMatrix type="matrix" values="0 0 0 0 1 0 0 0 0 1 0 0 0 0 1 0 0 0 0.5 0"/>
<feBlend mode="normal" in2="effect6_innerShadow_635_249" result="effect7_innerShadow_635_249"/>
</filter>
<filter id="filter2_biiiiii_635_249" x="-42" y="-56" width="279" height="215" filterUnits="userSpaceOnUse" color-interpolation-filters="sRGB">
<feFlood flood-opacity="0" result="BackgroundImageFix"/>
<feGaussianBlur in="BackgroundImageFix" stdDeviation="50"/>
<feComposite in2="SourceAlpha" operator="in" result="effect1_backgroundBlur_635_249"/>
<feBlend mode="normal" in="SourceGraphic" in2="effect1_backgroundBlur_635_249" result="shape"/>
<feColorMatrix in="SourceAlpha" type="matrix" values="0 0 0 0 0 0 0 0 0 0 0 0 0 0 0 0 0 0 127 0" result="hardAlpha"/>
<feOffset dy="1"/>
<feGaussianBlur stdDeviation="20"/>
<feComposite in2="hardAlpha" operator="arithmetic" k2="-1" k3="1"/>
<feColorMatrix type="matrix" values="0 0 0 0 0.890196 0 0 0 0 0.929412 0 0 0 0 0.937255 0 0 0 0.2 0"/>
<feBlend mode="normal" in2="shape" result="effect2_innerShadow_635_249"/>
<feColorMatrix in="SourceAlpha" type="matrix" values="0 0 0 0 0 0 0 0 0 0 0 0 0 0 0 0 0 0 127 0" result="hardAlpha"/>
<feOffset dy="4"/>
<feGaussianBlur stdDeviation="9"/>
<feComposite in2="hardAlpha" operator="arithmetic" k2="-1" k3="1"/>
<feColorMatrix type="matrix" values="0 0 0 0 0.603922 0 0 0 0 0.572549 0 0 0 0 0.823529 0 0 0 0.3 0"/>
<feBlend mode="normal" in2="effect2_innerShadow_635_249" result="effect3_innerShadow_635_249"/>
<feColorMatrix in="SourceAlpha" type="matrix" values="0 0 0 0 0 0 0 0 0 0 0 0 0 0 0 0 0 0 127 0" result="hardAlpha"/>
<feOffset dy="98"/>
<feGaussianBlur stdDeviation="50"/>
<feComposite in2="hardAlpha" operator="arithmetic" k2="-1" k3="1"/>
<feColorMatrix type="matrix" values="0 0 0 0 0.792157 0 0 0 0 0.67451 0 0 0 0 1 0 0 0 0.3 0"/>
<feBlend mode="normal" in2="effect3_innerShadow_635_249" result="effect4_innerShadow_635_249"/>
<feColorMatrix in="SourceAlpha" type="matrix" values="0 0 0 0 0 0 0 0 0 0 0 0 0 0 0 0 0 0 127 0" result="hardAlpha"/>
<feOffset dy="-82"/>
<feGaussianBlur stdDeviation="34"/>
<feComposite in2="hardAlpha" operator="arithmetic" k2="-1" k3="1"/>
<feColorMatrix type="matrix" values="0 0 0 0 0.376471 0 0 0 0 0.266667 0 0 0 0 0.564706 0 0 0 0.3 0"/>
<feBlend mode="normal" in2="effect4_innerShadow_635_249" result="effect5_innerShadow_635_249"/>
<feColorMatrix in="SourceAlpha" type="matrix" values="0 0 0 0 0 0 0 0 0 0 0 0 0 0 0 0 0 0 127 0" result="hardAlpha"/>
<feOffset dy="7"/>
<feGaussianBlur stdDeviation="5.5"/>
<feComposite in2="hardAlpha" operator="arithmetic" k2="-1" k3="1"/>
<feColorMatrix type="matrix" values="0 0 0 0 1 0 0 0 0 1 0 0 0 0 1 0 0 0 1 0"/>
<feBlend mode="normal" in2="effect5_innerShadow_635_249" result="effect6_innerShadow_635_249"/>
<feColorMatrix in="SourceAlpha" type="matrix" values="0 0 0 0 0 0 0 0 0 0 0 0 0 0 0 0 0 0 127 0" result="hardAlpha"/>
<feOffset dy="39"/>
<feGaussianBlur stdDeviation="28"/>
<feComposite in2="hardAlpha" operator="arithmetic" k2="-1" k3="1"/>
<feColorMatrix type="matrix" values="0 0 0 0 1 0 0 0 0 1 0 0 0 0 1 0 0 0 0.5 0"/>
<feBlend mode="normal" in2="effect6_innerShadow_635_249" result="effect7_innerShadow_635_249"/>
</filter>
<filter id="filter3_biiiiii_635_249" x="-42" y="-27" width="334" height="215" filterUnits="userSpaceOnUse" color-interpolation-filters="sRGB">
<feFlood flood-opacity="0" result="BackgroundImageFix"/>
<feGaussianBlur in="BackgroundImageFix" stdDeviation="50"/>
<feComposite in2="SourceAlpha" operator="in" result="effect1_backgroundBlur_635_249"/>
<feBlend mode="normal" in="SourceGraphic" in2="effect1_backgroundBlur_635_249" result="shape"/>
<feColorMatrix in="SourceAlpha" type="matrix" values="0 0 0 0 0 0 0 0 0 0 0 0 0 0 0 0 0 0 127 0" result="hardAlpha"/>
<feOffset dy="1"/>
<feGaussianBlur stdDeviation="20"/>
<feComposite in2="hardAlpha" operator="arithmetic" k2="-1" k3="1"/>
<feColorMatrix type="matrix" values="0 0 0 0 0.890196 0 0 0 0 0.929412 0 0 0 0 0.937255 0 0 0 0.2 0"/>
<feBlend mode="normal" in2="shape" result="effect2_innerShadow_635_249"/>
<feColorMatrix in="SourceAlpha" type="matrix" values="0 0 0 0 0 0 0 0 0 0 0 0 0 0 0 0 0 0 127 0" result="hardAlpha"/>
<feOffset dy="4"/>
<feGaussianBlur stdDeviation="9"/>
<feComposite in2="hardAlpha" operator="arithmetic" k2="-1" k3="1"/>
<feColorMatrix type="matrix" values="0 0 0 0 0.603922 0 0 0 0 0.572549 0 0 0 0 0.823529 0 0 0 0.3 0"/>
<feBlend mode="normal" in2="effect2_innerShadow_635_249" result="effect3_innerShadow_635_249"/>
<feColorMatrix in="SourceAlpha" type="matrix" values="0 0 0 0 0 0 0 0 0 0 0 0 0 0 0 0 0 0 127 0" result="hardAlpha"/>
<feOffset dy="98"/>
<feGaussianBlur stdDeviation="50"/>
<feComposite in2="hardAlpha" operator="arithmetic" k2="-1" k3="1"/>
<feColorMatrix type="matrix" values="0 0 0 0 0.792157 0 0 0 0 0.67451 0 0 0 0 1 0 0 0 0.3 0"/>
<feBlend mode="normal" in2="effect3_innerShadow_635_249" result="effect4_innerShadow_635_249"/>
<feColorMatrix in="SourceAlpha" type="matrix" values="0 0 0 0 0 0 0 0 0 0 0 0 0 0 0 0 0 0 127 0" result="hardAlpha"/>
<feOffset dy="-82"/>
<feGaussianBlur stdDeviation="34"/>
<feComposite in2="hardAlpha" operator="arithmetic" k2="-1" k3="1"/>
<feColorMatrix type="matrix" values="0 0 0 0 0.376471 0 0 0 0 0.266667 0 0 0 0 0.564706 0 0 0 0.3 0"/>
<feBlend mode="normal" in2="effect4_innerShadow_635_249" result="effect5_innerShadow_635_249"/>
<feColorMatrix in="SourceAlpha" type="matrix" values="0 0 0 0 0 0 0 0 0 0 0 0 0 0 0 0 0 0 127 0" result="hardAlpha"/>
<feOffset dy="7"/>
<feGaussianBlur stdDeviation="5.5"/>
<feComposite in2="hardAlpha" operator="arithmetic" k2="-1" k3="1"/>
<feColorMatrix type="matrix" values="0 0 0 0 1 0 0 0 0 1 0 0 0 0 1 0 0 0 1 0"/>
<feBlend mode="normal" in2="effect5_innerShadow_635_249" result="effect6_innerShadow_635_249"/>
<feColorMatrix in="SourceAlpha" type="matrix" values="0 0 0 0 0 0 0 0 0 0 0 0 0 0 0 0 0 0 127 0" result="hardAlpha"/>
<feOffset dy="39"/>
<feGaussianBlur stdDeviation="28"/>
<feComposite in2="hardAlpha" operator="arithmetic" k2="-1" k3="1"/>
<feColorMatrix type="matrix" values="0 0 0 0 1 0 0 0 0 1 0 0 0 0 1 0 0 0 0.5 0"/>
<feBlend mode="normal" in2="effect6_innerShadow_635_249" result="effect7_innerShadow_635_249"/>
</filter>
<filter id="filter4_biiiiii_635_249" x="-42" y="0" width="336" height="215" filterUnits="userSpaceOnUse" color-interpolation-filters="sRGB">
<feFlood flood-opacity="0" result="BackgroundImageFix"/>
<feGaussianBlur in="BackgroundImageFix" stdDeviation="50"/>
<feComposite in2="SourceAlpha" operator="in" result="effect1_backgroundBlur_635_249"/>
<feBlend mode="normal" in="SourceGraphic" in2="effect1_backgroundBlur_635_249" result="shape"/>
<feColorMatrix in="SourceAlpha" type="matrix" values="0 0 0 0 0 0 0 0 0 0 0 0 0 0 0 0 0 0 127 0" result="hardAlpha"/>
<feOffset dy="1"/>
<feGaussianBlur stdDeviation="20"/>
<feComposite in2="hardAlpha" operator="arithmetic" k2="-1" k3="1"/>
<feColorMatrix type="matrix" values="0 0 0 0 0.890196 0 0 0 0 0.929412 0 0 0 0 0.937255 0 0 0 0.2 0"/>
<feBlend mode="normal" in2="shape" result="effect2_innerShadow_635_249"/>
<feColorMatrix in="SourceAlpha" type="matrix" values="0 0 0 0 0 0 0 0 0 0 0 0 0 0 0 0 0 0 127 0" result="hardAlpha"/>
<feOffset dy="4"/>
<feGaussianBlur stdDeviation="9"/>
<feComposite in2="hardAlpha" operator="arithmetic" k2="-1" k3="1"/>
<feColorMatrix type="matrix" values="0 0 0 0 0.603922 0 0 0 0 0.572549 0 0 0 0 0.823529 0 0 0 0.3 0"/>
<feBlend mode="normal" in2="effect2_innerShadow_635_249" result="effect3_innerShadow_635_249"/>
<feColorMatrix in="SourceAlpha" type="matrix" values="0 0 0 0 0 0 0 0 0 0 0 0 0 0 0 0 0 0 127 0" result="hardAlpha"/>
<feOffset dy="98"/>
<feGaussianBlur stdDeviation="50"/>
<feComposite in2="hardAlpha" operator="arithmetic" k2="-1" k3="1"/>
<feColorMatrix type="matrix" values="0 0 0 0 0.792157 0 0 0 0 0.67451 0 0 0 0 1 0 0 0 0.3 0"/>
<feBlend mode="normal" in2="effect3_innerShadow_635_249" result="effect4_innerShadow_635_249"/>
<feColorMatrix in="SourceAlpha" type="matrix" values="0 0 0 0 0 0 0 0 0 0 0 0 0 0 0 0 0 0 127 0" result="hardAlpha"/>
<feOffset dy="-82"/>
<feGaussianBlur stdDeviation="34"/>
<feComposite in2="hardAlpha" operator="arithmetic" k2="-1" k3="1"/>
<feColorMatrix type="matrix" values="0 0 0 0 0.376471 0 0 0 0 0.266667 0 0 0 0 0.564706 0 0 0 0.3 0"/>
<feBlend mode="normal" in2="effect4_innerShadow_635_249" result="effect5_innerShadow_635_249"/>
<feColorMatrix in="SourceAlpha" type="matrix" values="0 0 0 0 0 0 0 0 0 0 0 0 0 0 0 0 0 0 127 0" result="hardAlpha"/>
<feOffset dy="7"/>
<feGaussianBlur stdDeviation="5.5"/>
<feComposite in2="hardAlpha" operator="arithmetic" k2="-1" k3="1"/>
<feColorMatrix type="matrix" values="0 0 0 0 1 0 0 0 0 1 0 0 0 0 1 0 0 0 1 0"/>
<feBlend mode="normal" in2="effect5_innerShadow_635_249" result="effect6_innerShadow_635_249"/>
<feColorMatrix in="SourceAlpha" type="matrix" values="0 0 0 0 0 0 0 0 0 0 0 0 0 0 0 0 0 0 127 0" result="hardAlpha"/>
<feOffset dy="39"/>
<feGaussianBlur stdDeviation="28"/>
<feComposite in2="hardAlpha" operator="arithmetic" k2="-1" k3="1"/>
<feColorMatrix type="matrix" values="0 0 0 0 1 0 0 0 0 1 0 0 0 0 1 0 0 0 0.5 0"/>
<feBlend mode="normal" in2="effect6_innerShadow_635_249" result="effect7_innerShadow_635_249"/>
</filter>
<filter id="filter5_df_635_249" x="0" y="152" width="252" height="139" filterUnits="userSpaceOnUse" color-interpolation-filters="sRGB">
<feFlood flood-opacity="0" result="BackgroundImageFix"/>
<feColorMatrix in="SourceAlpha" type="matrix" values="0 0 0 0 0 0 0 0 0 0 0 0 0 0 0 0 0 0 127 0" result="hardAlpha"/>
<feOffset dy="4"/>
<feGaussianBlur stdDeviation="2"/>
<feComposite in2="hardAlpha" operator="out"/>
<feColorMatrix type="matrix" values="0 0 0 0 0 0 0 0 0 0 0 0 0 0 0 0 0 0 0.25 0"/>
<feBlend mode="normal" in2="BackgroundImageFix" result="effect1_dropShadow_635_249"/>
<feBlend mode="normal" in="SourceGraphic" in2="effect1_dropShadow_635_249" result="shape"/>
<feGaussianBlur stdDeviation="0.5" result="effect2_foregroundBlur_635_249"/>
</filter>
<filter id="filter6_f_635_249" x="33" y="114" width="187" height="131" filterUnits="userSpaceOnUse" color-interpolation-filters="sRGB">
<feFlood flood-opacity="0" result="BackgroundImageFix"/>
<feBlend mode="normal" in="SourceGraphic" in2="BackgroundImageFix" result="shape"/>
<feGaussianBlur stdDeviation="2" result="effect1_foregroundBlur_635_249"/>
</filter>
<linearGradient id="paint0_linear_635_249" x1="125.997" y1="154.337" x2="125.997" y2="276.155" gradientUnits="userSpaceOnUse">
<stop stop-color="#BE7708"/>
<stop offset="1" stop-color="#EFBA66"/>
</linearGradient>
<linearGradient id="paint1_linear_635_249" x1="125.997" y1="154.337" x2="125.997" y2="276.155" gradientUnits="userSpaceOnUse">
<stop stop-color="#F2A122"/>
<stop offset="0.495" stop-color="#F1DC43" stop-opacity="0.46"/>
<stop offset="1" stop-color="#BF852A"/>
</linearGradient>
<linearGradient id="paint2_linear_635_249" x1="125.997" y1="157.337" x2="125.997" y2="279.155" gradientUnits="userSpaceOnUse">
<stop stop-color="#BE7708"/>
<stop offset="1" stop-color="#EFBA66"/>
</linearGradient>
<linearGradient id="paint3_linear_635_249" x1="125.997" y1="157.337" x2="125.997" y2="279.155" gradientUnits="userSpaceOnUse">
<stop stop-color="#F2A122"/>
<stop offset="0.495" stop-color="#F1DC43" stop-opacity="0.46"/>
<stop offset="1" stop-color="#BF852A"/>
</linearGradient>
<linearGradient id="paint4_linear_635_249" x1="126" y1="175" x2="126" y2="262" gradientUnits="userSpaceOnUse">
<stop stop-color="#2D12A4"/>
<stop offset="1" stop-color="white" stop-opacity="0.8"/>
</linearGradient>
<linearGradient id="paint5_linear_635_249" x1="126" y1="175" x2="126" y2="262" gradientUnits="userSpaceOnUse">
<stop stop-color="#2D12A4"/>
<stop offset="1" stop-color="white" stop-opacity="0.8"/>
</linearGradient>
</defs>
</svg>
